<svg xmlns="http://www.w3.org/2000/svg" viewBox="0 0 25 25" id="antenna">
  <path d="M14.2546875,7.84921875 C14.2546875,7.84921875 14.2546875,7.84921875 14.2546875,7.84921875 C14.2546875,8.471875 14.0632812,8.95078125 13.728125,9.38203125 C13.3453125,9.81328125 12.8664063,10.1007812 12.3390625,10.24375 C12.3390625,10.24375 12.3390625,10.24375 12.3390625,10.24375 C12.3390625,10.24375 12.2914063,24.0367187 12.2914063,24.0367187 C12.2914063,24.0367187 11.3335938,24.0367187 11.3335938,24.0367187 C11.3335938,24.0367187 11.3335938,10.24375 11.3335938,10.24375 C10.7585938,10.1 10.2796875,9.8125 9.94453125,9.38203125 C9.56171875,8.95078125 9.36953125,8.471875 9.36953125,7.84921875 C9.36953125,7.84921875 9.36953125,7.84921875 9.36953125,7.84921875 C9.36953125,7.17890625 9.60859375,6.60390625 10.0882813,6.125 C10.5679688,5.64609375 11.1421875,5.40625 11.8125,5.40625 C12.4828125,5.40625 13.0578125,5.6453125 13.5367188,6.125 C14.015625,6.6046875 14.2554688,7.17890625 14.2554688,7.84921875 L14.2546875,7.84921875 Z M16.1703125,3.203125 C16.1703125,3.203125 16.1226562,3.203125 16.1226562,3.203125 C16.075,3.15546875 15.9789062,3.10703125 15.8351562,3.10703125 C15.8351562,3.10703125 15.8351562,3.10703125 15.8351562,3.10703125 C15.5,3.10703125 15.35625,3.25078125 15.35625,3.5859375 C15.35625,3.5859375 15.35625,3.5859375 15.35625,3.5859375 C15.35625,3.77734375 15.4039062,3.92109375 15.5476562,4.0171875 C15.5476562,4.0171875 15.5476562,4.0171875 15.5476562,4.0171875 C16.7453125,4.92734375 17.3195312,6.12421875 17.3195312,7.51328125 C17.3195312,7.51328125 17.3195312,7.51328125 17.3195312,7.51328125 C17.3195312,9.28515625 16.553125,10.578125 15.0203125,11.3929688 C15.0203125,11.3929688 15.0203125,11.3929688 15.0203125,11.3929688 C14.8289062,11.5367188 14.7328125,11.6804687 14.7328125,11.8242188 C14.7328125,11.8242188 14.7328125,11.8242188 14.7328125,11.8242188 C14.7328125,12.159375 14.9242187,12.3507813 15.259375,12.3507813 C15.259375,12.3507813 15.259375,12.3507813 15.259375,12.3507813 C15.3070312,12.3507813 15.3554688,12.303125 15.4984375,12.2546875 C15.4984375,12.2546875 15.4984375,12.2546875 15.4984375,12.2546875 C16.3601562,11.8234375 17.03125,11.153125 17.5578125,10.2914062 C18.0367187,9.47734375 18.2765625,8.51953125 18.2765625,7.51328125 C18.2765625,7.51328125 18.2765625,7.51328125 18.2765625,7.51328125 C18.2765625,5.74140625 17.5578125,4.3046875 16.1695312,3.203125 C16.1695312,3.203125 16.1695312,3.203125 16.1695312,3.203125 L16.1703125,3.203125 Z M18.2304688,1.09609375 C18.2304688,1.09609375 18.1828125,1.09609375 18.1828125,1.09609375 C18.1351562,1.0484375 18.0390625,1 17.8953125,1 C17.8953125,1 17.8953125,1 17.8953125,1 C17.5601562,1 17.4164063,1.14375 17.4164063,1.47890625 C17.4164063,1.47890625 17.4164063,1.47890625 17.4164063,1.47890625 C17.4164063,1.62265625 17.4640625,1.76640625 17.5601562,1.86171875 C17.5601562,1.86171875 17.5601562,1.86171875 17.5601562,1.86171875 C19.3320312,3.2984375 20.2421875,5.16640625 20.2421875,7.51328125 C20.2421875,7.51328125 20.2421875,7.51328125 20.2421875,7.51328125 C20.2421875,10.0515625 19.1882812,12.0632812 17.1289062,13.5476563 C17.1289062,13.5476563 17.1289062,13.5476563 17.1289062,13.5476563 C16.9851563,13.64375 16.8898438,13.7867187 16.8898438,13.9789062 C16.8898438,13.9789062 16.8898438,13.9789062 16.8898438,13.9789062 C16.8898438,14.3140625 17.0335938,14.4578125 17.36875,14.4578125 C17.36875,14.4578125 17.36875,14.4578125 17.36875,14.4578125 C17.5125,14.4578125 17.6078125,14.4101562 17.65625,14.3617187 C17.65625,14.3617187 17.65625,14.3617187 17.65625,14.3617187 C20.0507812,12.6851562 21.2484375,10.434375 21.2484375,7.51328125 C21.2484375,7.51328125 21.2484375,7.51328125 21.2484375,7.51328125 C21.2484375,4.92734375 20.2429687,2.771875 18.23125,1.0953125 C18.23125,1.0953125 18.23125,1.0953125 18.23125,1.0953125 L18.2304688,1.09609375 Z M9.2265625,11.3929688 C9.2265625,11.3929688 9.2265625,11.3929688 9.2265625,11.3929688 C7.69375,10.5789062 6.92734375,9.2859375 6.92734375,7.51328125 C6.92734375,7.51328125 6.92734375,7.51328125 6.92734375,7.51328125 C6.92734375,6.0765625 7.50234375,4.92734375 8.6515625,4.0171875 C8.6515625,4.0171875 8.6515625,4.0171875 8.6515625,4.0171875 C8.7953125,3.92109375 8.890625,3.778125 8.890625,3.5859375 C8.890625,3.5859375 8.890625,3.5859375 8.890625,3.5859375 C8.890625,3.25078125 8.746875,3.10703125 8.41171875,3.10703125 C8.41171875,3.10703125 8.41171875,3.10703125 8.41171875,3.10703125 C8.315625,3.10703125 8.2203125,3.1546875 8.0765625,3.203125 C8.0765625,3.203125 8.0765625,3.203125 8.0765625,3.203125 C6.63984375,4.3046875 5.92109375,5.74140625 5.92109375,7.51328125 C5.92109375,7.51328125 5.92109375,7.51328125 5.92109375,7.51328125 C5.92109375,8.51875 6.16015625,9.4765625 6.6875,10.2914063 C7.21484375,11.10625 7.88515625,11.7757813 8.69921875,12.2546875 C8.69921875,12.2546875 8.69921875,12.2546875 8.69921875,12.2546875 C8.84296875,12.3023438 8.93828125,12.3507813 8.98671875,12.3507813 C8.98671875,12.3507813 8.98671875,12.3507813 8.98671875,12.3507813 C9.321875,12.3507813 9.465625,12.159375 9.465625,11.8242188 C9.465625,11.8242188 9.465625,11.8242188 9.465625,11.8242188 C9.465625,11.6328125 9.36953125,11.4890625 9.2265625,11.3929688 L9.2265625,11.3929688 Z M3.9578125,7.5140625 C3.9578125,7.5140625 3.9578125,7.5140625 3.9578125,7.5140625 C3.9578125,5.21484375 4.86796875,3.34765625 6.63984375,1.8625 C6.63984375,1.8625 6.63984375,1.8625 6.63984375,1.8625 C6.78359375,1.71875 6.83125,1.6234375 6.83125,1.4796875 C6.83125,1.4796875 6.83125,1.4796875 6.83125,1.4796875 C6.83125,1.14453125 6.6875,1.00078125 6.35234375,1.00078125 C6.35234375,1.00078125 6.35234375,1.00078125 6.35234375,1.00078125 C6.25625,1.00078125 6.1609375,1.0484375 6.0171875,1.096875 C6.0171875,1.096875 6.0171875,1.096875 6.0171875,1.096875 C4.00546875,2.7734375 3,4.88046875 3,7.51484375 C3,7.51484375 3,7.51484375 3,7.51484375 C3,10.3882813 4.19765625,12.6875 6.54375,14.3632813 C6.54375,14.3632813 6.54375,14.3632813 6.54375,14.3632813 C6.6875,14.4109375 6.7828125,14.459375 6.83125,14.459375 C6.83125,14.459375 6.83125,14.459375 6.83125,14.459375 C7.16640625,14.459375 7.31015625,14.315625 7.31015625,13.9804688 C7.31015625,13.9804688 7.31015625,13.9804688 7.31015625,13.9804688 C7.31015625,13.7890625 7.2625,13.6453125 7.11875,13.5492188 C7.11875,13.5492188 7.11875,13.5492188 7.11875,13.5492188 C5.01171875,12.0648438 3.9578125,10.053125 3.9578125,7.51484375 L3.9578125,7.5140625 Z"/>
  <title>Antenna</title>
</svg>