<svg width="50" height="50" viewBox="0 0 50 50" fill="none" xmlns="http://www.w3.org/2000/svg">
<path fill-rule="evenodd" clip-rule="evenodd" d="M41.8594 7.18437C37.0703 2.39531 31.3234 0 24.5219 0C17.7203 0 11.9734 2.39531 7.18437 7.18437C2.39531 11.9734 0 17.7203 0 24.5219C0 27.0125 0.382812 29.5984 1.24531 32.2812L1.4375 32.0891L11.7828 21.8406C12.2609 21.3625 12.6453 21.3625 13.1234 21.8406L20.4031 29.025L33.7172 15.7109H20.4031C19.7328 15.7109 19.35 15.4234 19.35 14.7531C19.35 13.9875 19.7328 13.6031 20.4031 13.6031H36.0156C36.1109 13.5078 36.3031 13.6031 36.5906 13.6984C36.8781 13.7937 37.0688 14.0812 37.1656 14.3687C37.2609 14.4641 37.2609 14.6562 37.2609 14.9438V30.3656C37.2609 31.1313 36.9734 31.5156 36.3031 31.5156C35.6328 31.5156 35.3453 31.1328 35.3453 30.3656V17.0516L21.0734 31.2281C20.5953 31.7062 20.1156 31.7062 19.6359 31.2281L12.4516 24.0438L2.10625 34.2922C3.92656 38.6984 6.89531 42.2422 11.0141 44.925C15.0375 47.7031 19.5391 49.0438 24.5203 49.0438C31.3203 49.0438 37.0687 46.6484 41.8578 41.8594C46.6469 37.0703 49.0422 31.3234 49.0422 24.5219C49.0422 17.7203 46.6469 11.9734 41.8578 7.18437H41.8594Z" fill="#C70BB5"/>
</svg>
