<svg width="50" height="50" viewBox="0 0 50 50" fill="none" xmlns="http://www.w3.org/2000/svg">
<path fill-rule="evenodd" clip-rule="evenodd" d="M49.0422 12.9078V13.1L43.1031 34.7469C43.0078 35.225 42.7203 35.4172 42.2406 35.4172V35.4172L19.3484 37.1406L18.2953 39.3438H40.2297C40.9 39.3438 41.1875 39.6313 41.1875 40.3016V40.3016C41.1875 40.9719 40.9 41.3547 40.2297 41.3547V41.3547H16.6672C15.9969 41.3547 15.7094 40.9719 15.7094 40.3016V40.3016C15.7094 40.1094 15.7094 40.0141 15.8047 39.9188V39.9188L17.05 37.3328L16.7625 37.4281H16.6672C16.1891 37.4281 15.8047 37.1406 15.7094 36.6625V36.6625L8.2375 6.68125C8.14219 6.20313 7.75937 6.01094 7.27969 6.01094V6.01094H0.957812C0.2875 6.01094 0 5.72344 0 5.05313V5.05313C0 4.38281 0.2875 4 0.957812 4V4H7.27969C8.71719 4 9.675 4.76562 10.1531 6.20312V6.20312L11.5906 11.95C11.5906 11.8547 11.6859 11.8547 11.7828 11.8547V11.8547H48.0859C48.7563 11.8547 49.0438 12.2375 49.0438 12.9078V12.9078H49.0422ZM19.6355 43.272V43.272C19.0605 43.272 18.5824 43.4642 18.198 43.847C17.8137 44.2298 17.623 44.7095 17.623 45.1876V45.1876C17.623 45.7626 17.8152 46.2407 18.198 46.6251C18.5809 47.0095 19.0605 47.2001 19.6355 47.2001V47.2001C20.1137 47.2001 20.5934 47.0079 20.9762 46.6251C21.359 46.2423 21.5512 45.7626 21.5512 45.1876V45.1876C21.5512 44.7095 21.359 44.2298 20.9762 43.847C20.5934 43.4642 20.1137 43.272 19.6355 43.272ZM38.6969 43.8453C38.2188 43.4625 37.7391 43.2703 37.2594 43.2703C36.7797 43.2703 36.3016 43.4625 35.9187 43.8453C35.5359 44.2281 35.3438 44.7078 35.3438 45.1859V45.1859C35.3438 45.7609 35.5359 46.239 35.9187 46.6234C36.3016 47.0078 36.7812 47.1984 37.2594 47.1984C37.7375 47.1984 38.2172 47.0062 38.6969 46.6234C39.0797 46.2406 39.2719 45.7609 39.2719 45.1859V45.1859C39.2719 44.7078 39.0797 44.2281 38.6969 43.8453Z" fill="#C70BB5"/>
</svg>
