<svg xmlns="http://www.w3.org/2000/svg" viewBox="0 0 25 25" id="chain">
  <path d="M6.3703125,11.928125 C6.3703125,11.928125 6.3703125,11.928125 6.3703125,11.928125 C6.3703125,11.928125 18.1515625,11.928125 18.1515625,11.928125 C18.4867188,11.928125 18.6304687,12.071875 18.6304687,12.4070313 C18.6304687,12.4070313 18.6304687,12.4070313 18.6304687,12.4070313 C18.6304687,12.7421875 18.4867188,12.9335938 18.1515625,12.9335938 C18.1515625,12.9335938 18.1515625,12.9335938 18.1515625,12.9335938 C18.1515625,12.9335938 6.3703125,12.9335938 6.3703125,12.9335938 C6.03515625,12.9335938 5.89140625,12.7421875 5.89140625,12.4070313 C5.89140625,12.4070313 5.89140625,12.4070313 5.89140625,12.4070313 C5.89140625,12.071875 6.03515625,11.928125 6.3703125,11.928125 Z M23.0375,8.00078125 C23.0375,8.00078125 23.0375,8.00078125 23.0375,8.00078125 C23.0375,8.00078125 15.1828125,8.00078125 15.1828125,8.00078125 C14.7515625,8.00078125 14.4164062,8.14453125 14.1773437,8.43203125 C13.8898437,8.71953125 13.7460937,9.0546875 13.7460937,9.4859375 C13.7460937,9.4859375 13.7460937,9.4859375 13.7460937,9.4859375 C13.7460937,9.4859375 13.7460937,10.9703125 13.7460937,10.9703125 C13.7460937,10.9703125 14.7039062,10.9703125 14.7039062,10.9703125 C14.7039062,10.9703125 14.7039062,9.4859375 14.7039062,9.4859375 C14.7039062,9.15078125 14.8476562,9.00703125 15.1828125,9.00703125 C15.1828125,9.00703125 15.1828125,9.00703125 15.1828125,9.00703125 C15.1828125,9.00703125 23.0375,9.00703125 23.0375,9.00703125 C23.3726562,9.00703125 23.5640625,9.15078125 23.5640625,9.4859375 C23.5640625,9.4859375 23.5640625,9.4859375 23.5640625,9.4859375 C23.5640625,9.4859375 23.5640625,15.3765625 23.5640625,15.3765625 C23.5640625,15.7117187 23.3726562,15.8554688 23.0375,15.8554688 C23.0375,15.8554688 23.0375,15.8554688 23.0375,15.8554688 C23.0375,15.8554688 15.1828125,15.8554688 15.1828125,15.8554688 C14.8476562,15.8554688 14.7039062,15.7117187 14.7039062,15.3765625 C14.7039062,15.3765625 14.7039062,15.3765625 14.7039062,15.3765625 C14.7039062,15.3765625 14.7039062,13.8921875 14.7039062,13.8921875 C14.7039062,13.8921875 13.7460937,13.8921875 13.7460937,13.8921875 C13.7460937,13.8921875 13.7460937,15.3765625 13.7460937,15.3765625 C13.7460937,15.8078125 13.8898437,16.1429688 14.1773437,16.4304688 C14.4164062,16.7179688 14.7523437,16.8617188 15.1828125,16.8617188 C15.1828125,16.8617188 15.1828125,16.8617188 15.1828125,16.8617188 C15.1828125,16.8617188 23.0375,16.8617188 23.0375,16.8617188 C23.46875,16.8617188 23.8039063,16.7179688 24.0914062,16.4304688 C24.3789062,16.1429688 24.5226562,15.8078125 24.5226562,15.3765625 C24.5226562,15.3765625 24.5226562,15.3765625 24.5226562,15.3765625 C24.5226562,15.3765625 24.5226562,9.4859375 24.5226562,9.4859375 C24.5226562,9.0546875 24.3789062,8.71953125 24.0914062,8.43203125 C23.8039062,8.14453125 23.46875,8.00078125 23.0375,8.00078125 L23.0375,8.00078125 Z M9.81875,13.8914063 C9.81875,13.8914063 9.81875,15.3757812 9.81875,15.3757812 C9.81875,15.7109375 9.675,15.8546875 9.33984375,15.8546875 C9.33984375,15.8546875 9.33984375,15.8546875 9.33984375,15.8546875 C9.33984375,15.8546875 1.48515625,15.8546875 1.48515625,15.8546875 C1.15,15.8546875 0.95859375,15.7109375 0.95859375,15.3757812 C0.95859375,15.3757812 0.95859375,15.3757812 0.95859375,15.3757812 C0.95859375,15.3757812 0.95859375,9.48515625 0.95859375,9.48515625 C0.95859375,9.15 1.15,9.00625 1.48515625,9.00625 C1.48515625,9.00625 1.48515625,9.00625 1.48515625,9.00625 C1.48515625,9.00625 9.33984375,9.00625 9.33984375,9.00625 C9.675,9.00625 9.81875,9.15 9.81875,9.48515625 C9.81875,9.48515625 9.81875,9.48515625 9.81875,9.48515625 C9.81875,9.48515625 9.81875,10.9695312 9.81875,10.9695312 C9.81875,10.9695312 10.7765625,10.9695312 10.7765625,10.9695312 C10.7765625,10.9695312 10.7765625,9.48515625 10.7765625,9.48515625 C10.7765625,9.05390625 10.6328125,8.71875 10.39375,8.43125 C10.10625,8.14375 9.77109375,8 9.33984375,8 C9.33984375,8 9.33984375,8 9.33984375,8 C9.33984375,8 1.48515625,8 1.48515625,8 C1.05390625,8 0.71875,8.14375 0.43125,8.43125 C0.14375,8.71875 0,9.05390625 0,9.48515625 C0,9.48515625 0,9.48515625 0,9.48515625 C0,9.48515625 0,15.3757812 0,15.3757812 C0,15.8070313 0.14375,16.1421875 0.43125,16.4296875 C0.71875,16.7171875 1.05390625,16.8609375 1.48515625,16.8609375 C1.48515625,16.8609375 1.48515625,16.8609375 1.48515625,16.8609375 C1.48515625,16.8609375 9.33984375,16.8609375 9.33984375,16.8609375 C9.77109375,16.8609375 10.10625,16.7171875 10.39375,16.4296875 C10.6328125,16.1421875 10.7765625,15.8070313 10.7765625,15.3757812 C10.7765625,15.3757812 10.7765625,15.3757812 10.7765625,15.3757812 C10.7765625,15.3757812 10.7765625,13.8914063 10.7765625,13.8914063 C10.7765625,13.8914063 9.81875,13.8914063 9.81875,13.8914063 Z"/>
  <title>Chain</title>
</svg>