<svg xmlns="http://www.w3.org/2000/svg" viewBox="0 0 25 25" id="circle-solid">
  <path d="M12.8179688,21.6359375 C12.8179688,21.6359375 12.8179688,21.6359375 12.8179688,21.6359375 C10.0882813,21.6359375 7.7890625,20.678125 5.8734375,18.7625 C3.9578125,16.846875 3,14.5476562 3,11.8179688 C3,9.08828125 3.9578125,6.7890625 5.8734375,4.8734375 C7.7890625,2.9578125 10.0882813,2 12.8179688,2 C15.5476562,2 17.846875,2.9578125 19.7625,4.8734375 C21.678125,6.7890625 22.6359375,9.08828125 22.6359375,11.8179688 C22.6359375,11.8179688 22.6359375,11.8179688 22.6359375,11.8179688 C22.5882813,14.5476562 21.6304688,16.846875 19.7625,18.7148438 C17.846875,20.6304687 15.5476562,21.5882813 12.8179688,21.6359375 Z"/>
  <title>Circle Solid</title>
</svg>