<svg xmlns="http://www.w3.org/2000/svg" viewBox="0 0 25 25" id="document-doc">
  <path d="M22.1632813,6.753125 C22.1632813,6.753125 22.1632813,6.753125 22.1632813,6.753125 C22.1632813,6.753125 15.8414062,0.43125 15.8414062,0.43125 C15.6023437,0.14375 15.21875,0 14.7875,0 C14.7875,0 14.7875,0 14.7875,0 C14.7875,0 3.48515625,0 3.48515625,0 C3.05390625,0 2.71875,0.14375 2.43125,0.43125 C2.14375,0.71875 2,1.05390625 2,1.48515625 C2,1.48515625 2,1.48515625 2,1.48515625 C2,1.48515625 2,23.0367188 2,23.0367188 C2,23.4679688 2.14375,23.803125 2.43125,24.090625 C2.71875,24.378125 3.05390625,24.521875 3.48515625,24.521875 C3.48515625,24.521875 3.48515625,24.521875 3.48515625,24.521875 C3.48515625,24.521875 21.109375,24.521875 21.109375,24.521875 C21.540625,24.521875 21.8757812,24.378125 22.1632813,24.090625 C22.4507812,23.803125 22.5945312,23.4679688 22.5945312,23.0367188 C22.5945312,23.0367188 22.5945312,23.0367188 22.5945312,23.0367188 C22.5945312,23.0367188 22.5945312,7.80703125 22.5945312,7.80703125 C22.5945312,7.37578125 22.4507812,7.040625 22.1632813,6.753125 Z M15.6976563,1.6765625 C15.6976563,1.6765625 20.8703125,6.84921875 20.8703125,6.84921875 C20.8703125,6.84921875 16.225,6.84921875 16.225,6.84921875 C15.8898438,6.84921875 15.7460938,6.70546875 15.7460938,6.3703125 C15.7460938,6.3703125 15.7460938,6.3703125 15.7460938,6.3703125 C15.7460938,6.3703125 15.6984375,1.6765625 15.6984375,1.6765625 L15.6976563,1.6765625 Z M21.6367188,7.8546875 C21.6367188,7.8546875 21.6367188,23.0367188 21.6367188,23.0367188 C21.6367188,23.371875 21.4453125,23.515625 21.1101563,23.515625 C21.1101563,23.515625 21.1101563,23.515625 21.1101563,23.515625 C21.1101563,23.515625 3.4859375,23.515625 3.4859375,23.515625 C3.15078125,23.515625 2.959375,23.371875 2.959375,23.0367188 C2.959375,23.0367188 2.959375,23.0367188 2.959375,23.0367188 C2.959375,23.0367188 2.959375,1.48515625 2.959375,1.48515625 C2.959375,1.15 3.15078125,0.95859375 3.4859375,0.95859375 C3.4859375,0.95859375 3.4859375,0.95859375 3.4859375,0.95859375 C3.4859375,0.95859375 14.740625,0.95859375 14.740625,0.95859375 C14.740625,0.95859375 14.740625,6.3703125 14.740625,6.3703125 C14.740625,6.8015625 14.884375,7.13671875 15.171875,7.42421875 C15.459375,7.71171875 15.7945313,7.85546875 16.2257813,7.85546875 C16.2257813,7.85546875 16.2257813,7.85546875 16.2257813,7.85546875 C16.2257813,7.85546875 21.6375,7.85546875 21.6375,7.85546875 L21.6367188,7.8546875 Z M7.4125,14.703125 C7.4125,14.703125 7.4125,14.703125 7.4125,14.703125 C7.4125,14.703125 17.1828125,14.703125 17.1828125,14.703125 C17.5179688,14.703125 17.709375,14.846875 17.709375,15.1820312 C17.709375,15.1820312 17.709375,15.1820312 17.709375,15.1820312 C17.709375,15.5171875 17.5179688,15.7085937 17.1828125,15.7085937 C17.1828125,15.7085937 17.1828125,15.7085937 17.1828125,15.7085937 C17.1828125,15.7085937 7.4125,15.7085937 7.4125,15.7085937 C7.07734375,15.7085937 6.8859375,15.5171875 6.8859375,15.1820312 C6.8859375,15.1820312 6.8859375,15.1820312 6.8859375,15.1820312 C6.8859375,14.846875 7.07734375,14.703125 7.4125,14.703125 Z M6.88515625,11.2546875 C6.88515625,11.2546875 6.88515625,11.2546875 6.88515625,11.2546875 C6.88515625,10.9195312 7.0765625,10.7757812 7.41171875,10.7757812 C7.41171875,10.7757812 7.41171875,10.7757812 7.41171875,10.7757812 C7.41171875,10.7757812 13.2546875,10.7757812 13.2546875,10.7757812 C13.5898438,10.7757812 13.78125,10.9195312 13.78125,11.2546875 C13.78125,11.2546875 13.78125,11.2546875 13.78125,11.2546875 C13.78125,11.5898438 13.5898438,11.78125 13.2546875,11.78125 C13.2546875,11.78125 13.2546875,11.78125 13.2546875,11.78125 C13.2546875,11.78125 7.41171875,11.78125 7.41171875,11.78125 C7.0765625,11.78125 6.88515625,11.5898438 6.88515625,11.2546875 Z M17.709375,19.109375 C17.709375,19.109375 17.709375,19.109375 17.709375,19.109375 C17.709375,19.4445312 17.5179688,19.6359375 17.1828125,19.6359375 C17.1828125,19.6359375 17.1828125,19.6359375 17.1828125,19.6359375 C17.1828125,19.6359375 7.4125,19.6359375 7.4125,19.6359375 C7.07734375,19.6359375 6.8859375,19.4445312 6.8859375,19.109375 C6.8859375,19.109375 6.8859375,19.109375 6.8859375,19.109375 C6.8859375,18.7742187 7.07734375,18.6304687 7.4125,18.6304687 C7.4125,18.6304687 7.4125,18.6304687 7.4125,18.6304687 C7.4125,18.6304687 17.1828125,18.6304687 17.1828125,18.6304687 C17.5179688,18.6304687 17.709375,18.7742187 17.709375,19.109375 Z"/>
  <title>Document Doc</title>
</svg>