<svg xmlns="http://www.w3.org/2000/svg" viewBox="0 0 25 25" id="document-xls">
  <path d="M22.1632813,6.753125 C22.1632813,6.753125 22.5945312,7.39140625 22.5945312,7.80703125 C22.5945312,7.80703125 22.5945312,23.0367188 22.5945312,23.0367188 C22.5945312,23.4515625 22.4507812,23.803125 22.1632813,24.090625 C21.8757812,24.378125 21.525,24.521875 21.109375,24.521875 C21.109375,24.521875 3.48515625,24.521875 3.48515625,24.521875 C3.0703125,24.521875 2.71875,24.378125 2.43125,24.090625 C2.14375,23.803125 2,23.4523438 2,23.0367188 C2,23.0367188 2,1.48515625 2,1.48515625 C2,1.0703125 2.14375,0.71875 2.43125,0.43125 C2.71875,0.14375 3.06953125,0 3.48515625,0 C3.48515625,0 14.7875,0 14.7875,0 C15.234375,0 15.5859375,0.14375 15.8414063,0.43125 C15.8414063,0.43125 22.1632813,6.753125 22.1632813,6.753125 Z M20.8703125,6.84921875 C20.8703125,6.84921875 15.6976562,1.6765625 15.6976562,1.6765625 C15.6976562,1.6765625 15.7453125,6.3703125 15.7453125,6.3703125 C15.7453125,6.68984375 15.9046875,6.84921875 16.2242187,6.84921875 C16.2242187,6.84921875 20.8695312,6.84921875 20.8695312,6.84921875 L20.8703125,6.84921875 Z M21.6367188,23.0367187 C21.6367188,23.0367187 21.6367188,7.8546875 21.6367188,7.8546875 C21.6367188,7.8546875 16.225,7.8546875 16.225,7.8546875 C15.8101563,7.8546875 15.4585938,7.7109375 15.1710938,7.4234375 C14.8835938,7.1359375 14.7398438,6.78515625 14.7398438,6.36953125 C14.7398438,6.36953125 14.7398438,0.9578125 14.7398438,0.9578125 C14.7398438,0.9578125 3.48515625,0.9578125 3.48515625,0.9578125 C3.13359375,0.9578125 2.95859375,1.13359375 2.95859375,1.484375 C2.95859375,1.484375 2.95859375,23.0359375 2.95859375,23.0359375 C2.95859375,23.3554688 3.134375,23.5148437 3.48515625,23.5148437 C3.48515625,23.5148437 21.109375,23.5148437 21.109375,23.5148437 C21.4609375,23.5148437 21.6359375,23.3554688 21.6359375,23.0359375 L21.6367188,23.0367187 Z M6.9046875,13.7320312 C6.9046875,13.7320312 9.846875,13.7320312 9.846875,13.7320312 C9.846875,13.7320312 9.846875,11.7703125 9.846875,11.7703125 C9.846875,11.7703125 6.9046875,11.7703125 6.9046875,11.7703125 C6.9046875,11.7703125 6.9046875,13.7320312 6.9046875,13.7320312 Z M6.9046875,17.6554688 C6.9046875,17.6554688 6.9046875,19.6171875 6.9046875,19.6171875 C6.9046875,19.6171875 9.846875,19.6171875 9.846875,19.6171875 C9.846875,19.6171875 9.846875,17.6554688 9.846875,17.6554688 C9.846875,17.6554688 6.9046875,17.6554688 6.9046875,17.6554688 Z M9.846875,16.6742188 C9.846875,16.6742188 9.846875,14.7125 9.846875,14.7125 C9.846875,14.7125 6.9046875,14.7125 6.9046875,14.7125 C6.9046875,14.7125 6.9046875,16.6742188 6.9046875,16.6742188 C6.9046875,16.6742188 9.846875,16.6742188 9.846875,16.6742188 Z M17.69375,13.7320312 C17.69375,13.7320312 17.69375,11.7703125 17.69375,11.7703125 C17.69375,11.7703125 14.7515625,11.7703125 14.7515625,11.7703125 C14.7515625,11.7703125 14.7515625,13.7320312 14.7515625,13.7320312 C14.7515625,13.7320312 17.69375,13.7320312 17.69375,13.7320312 L17.69375,13.7320312 Z M17.69375,17.6554688 C17.69375,17.6554688 14.7515625,17.6554688 14.7515625,17.6554688 C14.7515625,17.6554688 14.7515625,19.6171875 14.7515625,19.6171875 C14.7515625,19.6171875 17.69375,19.6171875 17.69375,19.6171875 C17.69375,19.6171875 17.69375,17.6554688 17.69375,17.6554688 L17.69375,17.6554688 Z M14.7515625,16.6742188 C14.7515625,16.6742188 17.69375,16.6742188 17.69375,16.6742188 C17.69375,16.6742188 17.69375,14.7125 17.69375,14.7125 C17.69375,14.7125 14.7515625,14.7125 14.7515625,14.7125 C14.7515625,14.7125 14.7515625,16.6742188 14.7515625,16.6742188 Z M13.7703125,13.7320312 C13.7703125,13.7320312 13.7703125,11.7703125 13.7703125,11.7703125 C13.7703125,11.7703125 10.828125,11.7703125 10.828125,11.7703125 C10.828125,11.7703125 10.828125,13.7320312 10.828125,13.7320312 C10.828125,13.7320312 13.7703125,13.7320312 13.7703125,13.7320312 Z M13.7703125,14.7125 C13.7703125,14.7125 10.828125,14.7125 10.828125,14.7125 C10.828125,14.7125 10.828125,16.6742188 10.828125,16.6742188 C10.828125,16.6742188 13.7703125,16.6742188 13.7703125,16.6742188 C13.7703125,16.6742188 13.7703125,14.7125 13.7703125,14.7125 Z M13.7703125,17.6554688 C13.7703125,17.6554688 10.828125,17.6554688 10.828125,17.6554688 C10.828125,17.6554688 10.828125,19.6171875 10.828125,19.6171875 C10.828125,19.6171875 13.7703125,19.6171875 13.7703125,19.6171875 C13.7703125,19.6171875 13.7703125,17.6554688 13.7703125,17.6554688 Z M5.9234375,10.7898437 C5.9234375,10.7898437 18.6742188,10.7898437 18.6742188,10.7898437 C18.6742188,10.7898437 18.6742188,20.5984375 18.6742188,20.5984375 C18.6742188,20.5984375 5.9234375,20.5984375 5.9234375,20.5984375 C5.9234375,20.5984375 5.9234375,10.7898437 5.9234375,10.7898437 Z"/>
  <title>Document Xls</title>
</svg>