<svg xmlns="http://www.w3.org/2000/svg" viewBox="0 0 25 25" id="document-pdf">
  <path d="M22.59375,24.5210937 C22.59375,24.5210937 22.59375,6.8484375 22.59375,6.8484375 C22.59375,6.8484375 15.7453125,0 15.7453125,0 C15.7453125,0 2,0 2,0 C2,0 2,24.5210937 2,24.5210937 C2,24.5210937 22.59375,24.5210937 22.59375,24.5210937 Z M15.7445312,1.48515625 C15.7445312,1.48515625 21.1085937,6.84921875 21.1085937,6.84921875 C21.1085937,6.84921875 15.7445312,6.84921875 15.7445312,6.84921875 C15.7445312,6.84921875 15.7445312,1.48515625 15.7445312,1.48515625 Z M21.6359375,7.8546875 C21.6359375,7.8546875 21.5882813,23.5632813 21.5882813,23.5632813 C21.5882813,23.5632813 2.9578125,23.5632813 2.9578125,23.5632813 C2.9578125,23.5632813 2.9578125,0.9578125 2.9578125,0.9578125 C2.9578125,0.9578125 14.7390625,0.9578125 14.7390625,0.9578125 C14.7390625,0.9578125 14.7390625,7.8546875 14.7390625,7.8546875 C14.7390625,7.8546875 21.6359375,7.8546875 21.6359375,7.8546875 Z M9.85390625,12.7398438 C9.85390625,12.7398438 9.85390625,12.7398438 9.85390625,12.7398438 C9.85390625,13.3625 9.6625,13.79375 9.27890625,14.1289062 C9.27890625,14.1289062 9.27890625,14.1289062 9.27890625,14.1289062 C8.89609375,14.5117188 8.4171875,14.7039063 7.88984375,14.7039063 C7.88984375,14.7039063 7.88984375,14.7039063 7.88984375,14.7039063 C7.88984375,14.7039063 6.884375,14.7039063 6.884375,14.7039063 C6.884375,14.7039063 6.884375,16.6671875 6.884375,16.6671875 C6.884375,16.6671875 5.9265625,16.6671875 5.9265625,16.6671875 C5.9265625,16.6671875 5.9265625,10.7765625 5.9265625,10.7765625 C5.9265625,10.7765625 7.88984375,10.7765625 7.88984375,10.7765625 C8.41640625,10.7765625 8.8953125,10.9679688 9.27890625,11.3515625 C9.6625,11.7351563 9.85390625,12.2132813 9.85390625,12.740625 L9.85390625,12.7398438 Z M6.884375,11.7820312 C6.884375,11.7820312 6.884375,13.7453125 6.884375,13.7453125 C6.884375,13.7453125 7.88984375,13.7453125 7.88984375,13.7453125 C8.12890625,13.7453125 8.36875,13.6492187 8.56015625,13.4578125 C8.7515625,13.2664063 8.84765625,13.0265625 8.84765625,12.7390625 C8.84765625,12.7390625 8.84765625,12.7390625 8.84765625,12.7390625 C8.84765625,12.5 8.7515625,12.2601563 8.56015625,12.06875 C8.36875,11.8773437 8.12890625,11.78125 7.88984375,11.78125 C7.88984375,11.78125 7.88984375,11.78125 7.88984375,11.78125 C7.88984375,11.78125 6.884375,11.78125 6.884375,11.78125 L6.884375,11.7820312 Z M16.7023437,13.7453125 C16.7023437,13.7453125 16.7023437,16.6664063 16.7023437,16.6664063 C16.7023437,16.6664063 15.7445312,16.6664063 15.7445312,16.6664063 C15.7445312,16.6664063 15.7445312,10.7757812 15.7445312,10.7757812 C15.7445312,10.7757812 19.1445312,10.7757812 19.1445312,10.7757812 C19.1445312,10.7757812 19.1445312,11.78125 19.1445312,11.78125 C19.1445312,11.78125 16.7023437,11.78125 16.7023437,11.78125 C16.7023437,11.78125 16.7023437,12.7390625 16.7023437,12.7390625 C16.7023437,12.7390625 18.665625,12.7390625 18.665625,12.7390625 C18.665625,12.7390625 18.665625,13.7445312 18.665625,13.7445312 C18.665625,13.7445312 16.7023438,13.7445312 16.7023438,13.7445312 L16.7023437,13.7453125 Z M14.7390625,12.7398437 C14.7390625,12.7398437 14.7390625,14.703125 14.7390625,14.703125 C14.7390625,15.3257812 14.5476562,15.7570312 14.1640625,16.0921875 C14.1640625,16.0921875 14.1640625,16.0921875 14.1640625,16.0921875 C13.8289062,16.475 13.35,16.6671875 12.775,16.6671875 C12.775,16.6671875 12.775,16.6671875 12.775,16.6671875 C12.775,16.6671875 10.8117188,16.6671875 10.8117188,16.6671875 C10.8117188,16.6671875 10.8117188,10.7765625 10.8117188,10.7765625 C10.8117188,10.7765625 12.775,10.7765625 12.775,10.7765625 C13.35,10.7765625 13.8289062,10.9679688 14.1640625,11.3515625 C14.1640625,11.3515625 14.1640625,11.3515625 14.1640625,11.3515625 C14.546875,11.734375 14.7390625,12.2132812 14.7390625,12.740625 C14.7390625,12.740625 14.7390625,12.740625 14.7390625,12.740625 L14.7390625,12.7398437 Z M11.8171875,11.7820312 C11.8171875,11.7820312 11.8171875,15.709375 11.8171875,15.709375 C11.8648438,15.709375 11.9132813,15.709375 12.0085938,15.709375 C12.0085938,15.709375 12.0085938,15.709375 12.0085938,15.709375 C12.4398438,15.709375 12.7273438,15.709375 12.91875,15.6617187 C13.1101563,15.6617187 13.3015625,15.565625 13.49375,15.4226563 C13.6859375,15.2796875 13.78125,15.0398437 13.78125,14.7039062 C13.78125,14.7039062 13.78125,14.7039062 13.78125,14.7039062 C13.78125,14.7039062 13.78125,12.740625 13.78125,12.740625 C13.78125,12.309375 13.6851563,12.021875 13.4460938,11.9265625 C13.2070313,11.83125 12.6320313,11.7828125 11.8179688,11.7828125 C11.8179688,11.7828125 11.8179688,11.7828125 11.8179688,11.7828125 L11.8171875,11.7820312 Z"/>
  <title>Document Pdf</title>
</svg>