<svg xmlns="http://www.w3.org/2000/svg" viewBox="0 0 25 25" id="download">
  <path d="M2.04765625,20.8617188 C2.04765625,20.8617188 22.5460938,20.8617188 22.5460938,20.8617188 C22.5726562,20.8617188 22.59375,20.8828125 22.59375,20.909375 C22.59375,20.909375 22.59375,22.7289063 22.59375,22.7289063 C22.59375,22.7554687 22.5726562,22.7765625 22.5460938,22.7765625 C22.5460938,22.7765625 2.04765625,22.7765625 2.04765625,22.7765625 C2.02109375,22.7765625 2,22.7554687 2,22.7289063 C2,22.7289063 2,20.909375 2,20.909375 C2,20.8828125 2.02109375,20.8617188 2.04765625,20.8617188 Z M16.4625,12.16875 C16.628125,11.921875 16.8960937,11.8070312 17.2070312,11.8070312 C17.7984375,11.8070312 18.178125,12.1851562 18.178125,12.7742188 C18.178125,13.0335938 18.0765625,13.26875 17.8914062,13.4539063 C17.8914062,13.4539063 12.9953125,18.3789062 12.9953125,18.3789062 C12.9953125,18.3789062 12.8664062,18.471875 12.8664062,18.471875 C12.5585937,18.625 12.4609375,18.6671875 12.3109375,18.6671875 C12.1414062,18.6671875 11.9710937,18.603125 11.7078125,18.471875 C11.7078125,18.471875 11.5789062,18.3789062 11.5789062,18.3789062 C11.5789062,18.3789062 6.684375,13.4554688 6.684375,13.4554688 C6.49765625,13.2695312 6.396875,13.034375 6.396875,12.775 C6.396875,12.1859375 6.7765625,11.8070313 7.36796875,11.8070313 C7.6953125,11.8070313 7.96796875,11.9039063 8.1109375,12.1539063 C8.1109375,12.1539063 11.2921875,15.3226563 11.2921875,15.3226563 C11.2921875,15.3226563 11.2921875,2.96796875 11.2921875,2.96796875 C11.2921875,2.36796875 11.6976562,2 12.3109375,2 C12.9023438,2 13.2820312,2.37890625 13.2820312,2.96796875 C13.2820312,2.96796875 13.2820312,15.3242188 13.2820312,15.3242188 C13.2820312,15.3242188 16.4625,12.16875 16.4625,12.16875 L16.4625,12.16875 Z"/>
  <title>Download</title>
</svg>