<svg xmlns="http://www.w3.org/2000/svg" viewBox="0 0 25 25" id="flag-solid">
  <path d="M4.9578125,0.48046875 C4.9578125,0.48046875 4.9578125,0.48046875 4.9578125,0.48046875 C4.9578125,0.48046875 4.9578125,24.04375 4.9578125,24.04375 C4.9578125,24.3789062 4.8140625,24.5226562 4.47890625,24.5226562 C4.14375,24.5226562 4,24.3789062 4,24.04375 C4,24.04375 4,24.04375 4,24.04375 C4,24.04375 4,0.48046875 4,0.48046875 C4,0.1453125 4.14375,0.0015625 4.47890625,0.0015625 C4.8140625,0.0015625 4.9578125,0.1453125 4.9578125,0.48046875 L4.9578125,0.48046875 Z M20.1875,0.0015625 C20.1875,0.0015625 20.1875,0.0015625 20.1875,0.0015625 C20.1875,0.0015625 5.96328125,0.0015625 5.96328125,0.0015625 C5.96328125,0.0015625 5.96328125,11.7828125 5.96328125,11.7828125 C5.96328125,11.7828125 20.1875,11.7828125 20.1875,11.7828125 C20.61875,11.7828125 20.9539062,11.6390625 21.2414062,11.3515625 C21.5289062,11.0640625 21.6726562,10.7289062 21.6726562,10.2976563 C21.6726562,10.2976563 21.6726562,10.2976563 21.6726562,10.2976563 C21.6726562,10.2976563 21.6726562,1.48515625 21.6726562,1.48515625 C21.6726562,1.05390625 21.5289062,0.71875 21.2414062,0.43125 C20.9539062,0.14375 20.61875,0 20.1875,0 L20.1875,0.0015625 Z"/>
  <title>Flag Solid</title>
</svg>