<svg width="50" height="50" viewBox="0 0 50 50" fill="none" xmlns="http://www.w3.org/2000/svg">
<path fill-rule="evenodd" clip-rule="evenodd" d="M20.5918 42.9016V47.0203H30.8402V42.9016H20.5918ZM8.14141 24.5094V34.7578C8.14141 35.4281 7.85391 35.7156 7.18359 35.7156H3.06484C2.39453 35.7156 2.01172 35.4281 2.01172 34.7578V24.5094C2.01172 23.8391 2.39453 23.4562 3.06484 23.4562H7.18359C7.85391 23.4562 8.14141 23.8391 8.14141 24.5094ZM8.14062 21.6359H2.01094C0.670312 22.114 0 23.0734 0 24.5094V34.7578C0 35.6203 0.2875 36.2906 0.957812 36.8656C1.53281 37.5359 2.20312 37.8234 3.06562 37.8234H7.18437C8.04688 37.8234 8.71719 37.5359 9.3875 36.8656C9.9625 36.2906 10.25 35.6203 10.25 34.7578V24.5094C10.25 23.0719 9.57969 22.114 8.14219 21.6359H8.14062ZM44.9227 24.5094V34.7578C44.9227 35.4281 44.6352 35.7156 43.9648 35.7156H39.8461C39.1758 35.7156 38.793 35.4281 38.793 34.7578V24.5094C38.793 23.8391 39.1758 23.4562 39.8461 23.4562H43.9648C44.6352 23.4562 44.9227 23.8391 44.9227 24.5094ZM45.0168 21.6359H38.8871C37.4496 22.114 36.7793 23.0734 36.7793 24.5094V34.7578C36.7793 35.6203 37.0668 36.2906 37.7371 36.8656C38.3121 37.5359 38.9824 37.8234 39.8449 37.8234H43.9637C44.8262 37.8234 45.4965 37.5359 46.1668 36.8656C46.7418 36.2906 47.0293 35.6203 47.0293 34.7578V24.5094C47.0293 23.1687 46.359 22.2109 45.0184 21.6359H45.0168ZM2.00938 22.4031H4.11719C4.40469 17.3266 6.41563 12.9203 10.1516 9.37656C13.8875 5.83281 18.2938 4.10781 23.4656 4.10781C28.6375 4.10781 33.0437 5.83125 36.7797 9.37656C40.5156 12.9219 42.5266 17.3266 42.8141 22.4031H44.825C44.5375 16.7516 42.3344 11.8672 38.2156 7.93906C34.0969 4.01094 29.1156 2 23.4641 2C17.7172 2 12.8313 4.01094 8.7125 7.93906C4.59375 11.8672 2.29531 16.7516 2.00781 22.4031H2.00938ZM29.1168 49.0313H28.6387H24.5199C23.8496 49.0313 23.4668 48.6484 23.4668 47.9781C23.4668 47.3078 23.8496 46.925 24.5199 46.925H28.6387C37.7387 46.925 43.2934 45.8719 45.4965 43.6688C46.5496 42.7109 47.0293 41.4656 47.0293 39.8375V29.5891C47.0293 28.9188 47.3168 28.5359 47.9871 28.5359C48.6574 28.5359 49.0402 28.9188 49.0402 29.5891V39.8375C49.0402 42.0406 48.3699 43.7641 47.0293 45.1063C44.348 47.6922 38.409 49.0328 29.1168 49.0328V49.0313Z" fill="#C70BB5"/>
</svg>
