<svg xmlns="http://www.w3.org/2000/svg" viewBox="0 0 25 25" id="headline">
  <path d="M22.1210938,1 C22.1210938,1 22.1210938,1 22.1210938,1 C22.1210938,1 2.48515625,1 2.48515625,1 C2.05390625,1 1.71875,1.14375 1.43125,1.43125 C1.14375,1.71875 1,2.05390625 1,2.48515625 C1,2.48515625 1,2.48515625 1,2.48515625 C1,2.48515625 1,23.0789063 1,23.0789063 C1,23.5101563 1.14375,23.8453125 1.43125,24.1328125 C1.71875,24.4203125 2.05390625,24.5640625 2.48515625,24.5640625 C2.48515625,24.5640625 2.48515625,24.5640625 2.48515625,24.5640625 C2.48515625,24.5640625 22.1210938,24.5640625 22.1210938,24.5640625 C22.5523437,24.5640625 22.8875,24.4203125 23.175,24.1328125 C23.4625,23.8453125 23.60625,23.5101563 23.60625,23.0789063 C23.60625,23.0789063 23.60625,23.0789063 23.60625,23.0789063 C23.60625,23.0789063 23.60625,2.48515625 23.60625,2.48515625 C23.60625,2.05390625 23.4625,1.71875 23.175,1.43125 C22.8875,1.14375 22.5523437,1 22.1210938,1 Z M22.6,2.484375 C22.6,2.484375 22.6,23.078125 22.6,23.078125 C22.6,23.4132813 22.45625,23.5570313 22.1210938,23.5570313 C22.1210938,23.5570313 22.1210938,23.5570313 22.1210938,23.5570313 C22.1210938,23.5570313 2.48515625,23.5570313 2.48515625,23.5570313 C2.15,23.5570313 2.00625,23.4132813 2.00625,23.078125 C2.00625,23.078125 2.00625,23.078125 2.00625,23.078125 C2.00625,23.078125 2.00625,2.484375 2.00625,2.484375 C2.00625,2.14921875 2.15,2.00546875 2.48515625,2.00546875 C2.48515625,2.00546875 2.48515625,2.00546875 2.48515625,2.00546875 C2.48515625,2.00546875 22.1210938,2.00546875 22.1210938,2.00546875 C22.45625,2.00546875 22.6,2.14921875 22.6,2.484375 C22.6,2.484375 22.6,2.484375 22.6,2.484375 Z M4.92734375,11.8242187 C4.92734375,11.8242187 4.92734375,11.8242187 4.92734375,11.8242187 C4.92734375,11.8242187 10.8179688,11.8242187 10.8179688,11.8242187 C11.1054688,11.8242187 11.3445312,11.728125 11.5367188,11.5367187 C11.7289063,11.3453125 11.8242188,11.1054687 11.8242188,10.8179687 C11.8242188,10.8179687 11.8242188,10.8179687 11.8242188,10.8179687 C11.8242188,10.8179687 11.8242188,5.9328125 11.8242188,5.9328125 C11.8242188,5.69375 11.728125,5.45390625 11.5367187,5.2140625 C11.3453125,5.02265625 11.1054688,4.9265625 10.8179688,4.9265625 C10.8179688,4.9265625 10.8179688,4.9265625 10.8179688,4.9265625 C10.8179688,4.9265625 4.92734375,4.9265625 4.92734375,4.9265625 C4.68828125,4.9265625 4.4484375,5.02265625 4.25703125,5.2140625 C4.065625,5.453125 3.96953125,5.69296875 3.96953125,5.9328125 C3.96953125,5.9328125 3.96953125,5.9328125 3.96953125,5.9328125 C3.96953125,5.9328125 3.96953125,10.8179687 3.96953125,10.8179687 C3.96953125,11.1054687 4.065625,11.3445312 4.25703125,11.5367187 C4.4484375,11.7289062 4.68828125,11.8242187 4.92734375,11.8242187 Z M4.92734375,10.8179687 C4.92734375,10.8179687 4.92734375,5.9328125 4.92734375,5.9328125 C4.92734375,5.9328125 10.8179688,5.9328125 10.8179688,5.9328125 C10.8179688,5.9328125 10.8179688,10.8179687 10.8179688,10.8179687 C10.8179688,10.8179687 4.92734375,10.8179687 4.92734375,10.8179687 Z M20.6359375,5.45390625 C20.6359375,5.45390625 20.6359375,5.45390625 20.6359375,5.45390625 C20.6359375,5.7890625 20.4921875,5.9328125 20.1570312,5.9328125 C20.1570312,5.9328125 20.1570312,5.9328125 20.1570312,5.9328125 C20.1570312,5.9328125 14.2664062,5.9328125 14.2664062,5.9328125 C13.93125,5.9328125 13.7875,5.7890625 13.7875,5.45390625 C13.7875,5.45390625 13.7875,5.45390625 13.7875,5.45390625 C13.7875,5.11875 13.93125,4.92734375 14.2664062,4.92734375 C14.2664062,4.92734375 14.2664062,4.92734375 14.2664062,4.92734375 C14.2664062,4.92734375 20.1570312,4.92734375 20.1570312,4.92734375 C20.4921875,4.92734375 20.6359375,5.11875 20.6359375,5.45390625 Z M20.1570312,7.896875 C20.4921875,7.896875 20.6359375,8.040625 20.6359375,8.37578125 C20.6359375,8.7109375 20.4921875,8.8546875 20.1570312,8.8546875 C20.1570312,8.8546875 20.1570312,8.8546875 20.1570312,8.8546875 C20.1570312,8.8546875 14.2664062,8.8546875 14.2664062,8.8546875 C13.93125,8.8546875 13.7875,8.7109375 13.7875,8.37578125 C13.7875,8.040625 13.93125,7.896875 14.2664062,7.896875 C14.2664062,7.896875 14.2664062,7.896875 14.2664062,7.896875 C14.2664062,7.896875 20.1570312,7.896875 20.1570312,7.896875 Z M20.6359375,11.296875 C20.6359375,11.296875 20.6359375,11.296875 20.6359375,11.296875 C20.6359375,11.6320312 20.4921875,11.8234375 20.1570312,11.8234375 C20.1570312,11.8234375 20.1570312,11.8234375 20.1570312,11.8234375 C20.1570312,11.8234375 14.2664062,11.8234375 14.2664062,11.8234375 C13.93125,11.8234375 13.7875,11.6320312 13.7875,11.296875 C13.7875,11.296875 13.7875,11.296875 13.7875,11.296875 C13.7875,10.9617187 13.93125,10.8179687 14.2664062,10.8179687 C14.2664062,10.8179687 14.2664062,10.8179687 14.2664062,10.8179687 C14.2664062,10.8179687 20.1570312,10.8179687 20.1570312,10.8179687 C20.4921875,10.8179687 20.6359375,10.9617187 20.6359375,11.296875 Z M20.1570313,13.7875 C20.4921875,13.7875 20.6359375,13.93125 20.6359375,14.2664062 C20.6359375,14.6015625 20.4921875,14.7453125 20.1570313,14.7453125 C20.1570313,14.7453125 20.1570313,14.7453125 20.1570313,14.7453125 C20.1570313,14.7453125 4.4484375,14.7453125 4.4484375,14.7453125 C4.11328125,14.7453125 3.96953125,14.6015625 3.96953125,14.2664062 C3.96953125,13.93125 4.11328125,13.7875 4.4484375,13.7875 C4.4484375,13.7875 4.4484375,13.7875 4.4484375,13.7875 C4.4484375,13.7875 20.1570313,13.7875 20.1570313,13.7875 Z M20.6359375,17.1875 C20.6359375,17.1875 20.6359375,17.1875 20.6359375,17.1875 C20.6359375,17.5226563 20.4921875,17.7140625 20.1570313,17.7140625 C20.1570313,17.7140625 20.1570313,17.7140625 20.1570313,17.7140625 C20.1570313,17.7140625 4.4484375,17.7140625 4.4484375,17.7140625 C4.11328125,17.7140625 3.96953125,17.5226563 3.96953125,17.1875 C3.96953125,17.1875 3.96953125,17.1875 3.96953125,17.1875 C3.96953125,16.8523438 4.11328125,16.7085938 4.4484375,16.7085938 C4.4484375,16.7085938 4.4484375,16.7085938 4.4484375,16.7085938 C4.4484375,16.7085938 20.1570313,16.7085938 20.1570313,16.7085938 C20.4921875,16.7085938 20.6359375,16.8523438 20.6359375,17.1875 Z M20.1570313,19.678125 C20.4921875,19.678125 20.6359375,19.821875 20.6359375,20.1570313 C20.6359375,20.4921875 20.4921875,20.6359375 20.1570313,20.6359375 C20.1570313,20.6359375 20.1570313,20.6359375 20.1570313,20.6359375 C20.1570313,20.6359375 4.4484375,20.6359375 4.4484375,20.6359375 C4.11328125,20.6359375 3.96953125,20.4921875 3.96953125,20.1570313 C3.96953125,19.821875 4.11328125,19.678125 4.4484375,19.678125 C4.4484375,19.678125 4.4484375,19.678125 4.4484375,19.678125 C4.4484375,19.678125 20.1570313,19.678125 20.1570313,19.678125 Z"/>
  <title>Headline</title>
</svg>