<svg xmlns="http://www.w3.org/2000/svg" viewBox="0 0 25 25" id="home-solid">
  <path d="M24.3765625,12.9195313 C24.3765625,12.9195313 24.3765625,12.9195313 24.3765625,12.9195313 C24.3765625,12.9195313 12.5953125,2.14375 12.5953125,2.14375 C12.4992187,2.04765625 12.4039062,2 12.2601562,2 C12.1164063,2 12.0210937,2.04765625 11.925,2.14375 C11.925,2.14375 11.925,2.14375 11.925,2.14375 C11.925,2.14375 0.14375,12.9195313 0.14375,12.9195313 C0.04765625,13.015625 0,13.1585938 0,13.3023438 C0,13.3023438 0,13.3023438 0,13.3023438 C0,13.6375 0.14375,13.78125 0.47890625,13.78125 C0.47890625,13.78125 0.47890625,13.78125 0.47890625,13.78125 C0.62265625,13.78125 0.71796875,13.7335938 0.8140625,13.6375 C0.8140625,13.6375 0.8140625,13.6375 0.8140625,13.6375 C0.8140625,13.6375 2.92109375,11.721875 2.92109375,11.721875 C2.92109375,11.721875 2.92109375,22.1148438 2.92109375,22.1148438 C2.92109375,22.5460938 3.06484375,22.88125 3.35234375,23.16875 C3.63984375,23.45625 3.975,23.6 4.40625,23.6 C4.40625,23.6 4.40625,23.6 4.40625,23.6 C4.40625,23.6 20.1148437,23.6 20.1148437,23.6 C20.5460937,23.6 20.88125,23.45625 21.16875,23.16875 C21.45625,22.88125 21.6,22.5460938 21.6,22.1148438 C21.6,22.1148438 21.6,22.1148438 21.6,22.1148438 C21.6,22.1148438 21.6,11.721875 21.6,11.721875 C21.6,11.721875 23.7070312,13.6851563 23.7070312,13.6851563 C23.8507812,13.7328125 23.9460937,13.78125 24.0421875,13.78125 C24.0421875,13.78125 24.0421875,13.78125 24.0421875,13.78125 C24.3773438,13.78125 24.5210937,13.6375 24.5210937,13.3023438 C24.5210937,13.3023438 24.5210937,13.3023438 24.5210937,13.3023438 C24.5210937,13.1585938 24.4734375,13.0148438 24.3773438,12.9195313 L24.3765625,12.9195313 Z"/>
  <title>Home Solid</title>
</svg>