<svg width="50" height="50" viewBox="0 0 50 50" fill="none" xmlns="http://www.w3.org/2000/svg">
<path fill-rule="evenodd" clip-rule="evenodd" d="M14.7766 4H34.7C35.5625 4 36.2328 4.2875 36.7109 4.76562C37.1891 5.24375 37.4766 5.81875 37.4766 6.48906V42.6953C37.4766 43.3656 37.1891 43.9406 36.7109 44.4188C36.2328 44.8969 35.5609 45.1844 34.7 45.1844H14.7766C13.9141 45.1844 13.2437 44.8969 12.7656 44.4188C12.2875 43.9406 12 43.3656 12 42.6953V6.48906C12 5.81875 12.2875 5.24375 12.7656 4.76562C13.2437 4.2875 13.9156 4 14.7766 4C14.7766 4 14.7766 4 14.7766 4ZM33.55 7.92656L29.6234 8.02187C29.6234 8.5 29.4312 8.97969 29.0484 9.26719C28.6656 9.65 28.1859 9.84219 27.7078 9.84219H21.7688C21.2906 9.84219 20.8109 9.65 20.4281 9.26719C20.0453 8.97969 19.8531 8.50156 19.8531 8.02187L15.9266 7.92656C15.2562 7.92656 14.9688 8.21406 14.9688 8.88437V41.2594C14.9688 41.9297 15.2562 42.2172 15.9266 42.2172H33.5516C34.2219 42.2172 34.5094 41.9297 34.5094 41.2594V8.88437C34.5094 8.21406 34.2219 7.92656 33.5516 7.92656H33.55ZM26.7508 35.4172H22.7273C22.057 35.4172 21.7695 35.7047 21.7695 36.2797V36.375C21.7695 37.0453 22.057 37.3328 22.7273 37.3328H26.7508C27.4211 37.3328 27.7086 37.0453 27.7086 36.375V36.2797C27.7086 35.7047 27.4211 35.4172 26.7508 35.4172Z" fill="#C70BB5"/>
</svg>
