<svg width="50" height="50" viewBox="0 0 50 50" fill="none" xmlns="http://www.w3.org/2000/svg">
<path fill-rule="evenodd" clip-rule="evenodd" d="M49.0414 9.92812V36.3656C49.0414 37.0359 48.7539 37.4188 48.0836 37.4188C47.4133 37.4188 47.1258 37.0359 47.1258 36.3656V9.92812C47.1258 9.45 46.9336 8.97031 46.5508 8.49062C46.0727 8.10781 45.593 7.91562 45.1133 7.91562H4.88359C4.21328 7.91562 3.92578 7.62812 3.92578 6.95781C3.92578 6.2875 4.21328 6 4.88359 6H45.1133C46.1664 6 47.1242 6.38281 47.8914 7.15C48.6586 7.91719 49.0414 8.87344 49.0414 9.92812ZM45.1141 11.8438V39.3344C45.1141 39.8125 44.9219 40.2922 44.5391 40.675C44.1562 41.1531 43.6766 41.3453 43.1984 41.3453H1.91562C1.4375 41.3453 0.957812 41.1531 0.575 40.675C0.192187 40.2922 0 39.8125 0 39.3344V11.8438C0 11.3656 0.192187 10.8859 0.575 10.5031C0.957812 10.1203 1.4375 9.92813 1.91562 9.92813H43.1984C43.6766 9.92813 44.1562 10.1203 44.5391 10.5031C44.9219 10.8859 45.1141 11.3656 45.1141 11.8438ZM9.76797 16.825C9.76797 16.1547 9.48047 15.7719 8.81016 15.7719H4.88359C4.21328 15.7719 3.92578 16.1547 3.92578 16.825C3.92578 17.4953 4.21328 17.7828 4.88359 17.7828H8.81016C9.48047 17.7828 9.76797 17.4953 9.76797 16.825ZM29.4043 25.5422V25.6375V25.1594C29.4043 23.1484 28.734 21.5203 27.4887 20.0828C26.148 18.6453 24.5199 17.8797 22.6043 17.7844C20.5934 17.8797 18.9652 18.6469 17.7199 20.0828C16.3793 21.5203 15.709 23.1484 15.709 25.1594V25.6375V26.0203C15.709 28.0312 16.3793 29.6594 17.7199 31.0969C18.9652 32.5344 20.5934 33.3953 22.509 33.4922C24.5199 33.3969 26.1496 32.5344 27.4902 31.0969C28.7355 29.6594 29.4059 28.0312 29.4059 26.0203V25.5422H29.4043ZM40.2281 35.4078C40.8984 35.4078 41.1859 35.1203 41.1859 34.45C41.1859 33.7797 40.8984 33.4922 40.2281 33.4922H36.3016C35.6312 33.4922 35.3438 33.7797 35.3438 34.45C35.3438 35.1203 35.6312 35.4078 36.3016 35.4078H40.2281Z" fill="#C70BB5"/>
</svg>
