<svg xmlns="http://www.w3.org/2000/svg" viewBox="0 0 25 25" id="more">
  <path d="M14.353125,6.353125 C13.9703125,6.7359375 13.4914062,6.928125 12.9640625,6.928125 C12.4367188,6.928125 11.9585938,6.73671875 11.575,6.353125 C11.1921875,5.9703125 11,5.49140625 11,4.9640625 C11,4.43671875 11.1914062,3.95859375 11.575,3.575 C11.9578125,3.1921875 12.4367188,3 12.9640625,3 C13.4914063,3 13.9695312,3.19140625 14.353125,3.575 C14.7359375,3.9578125 14.928125,4.43671875 14.928125,4.9640625 C14.928125,5.49140625 14.7367187,5.96953125 14.353125,6.353125 Z M14.353125,13.7289063 C13.9703125,14.1117188 13.4914062,14.3039063 12.9640625,14.3039063 C12.4367188,14.3039063 11.9585938,14.1125 11.575,13.7289063 C11.1921875,13.3460938 11,12.8671875 11,12.3398438 C11,11.8125 11.1914062,11.334375 11.575,10.9507813 C11.9578125,10.5679688 12.4367188,10.3757813 12.9640625,10.3757813 C13.4914063,10.3757813 13.9695312,10.5671875 14.353125,10.9507813 C14.7359375,11.3335938 14.928125,11.8125 14.928125,12.3398438 C14.928125,12.8671875 14.7367187,13.3453125 14.353125,13.7289063 Z M14.353125,21.1039062 C13.9703125,21.4867187 13.4914062,21.6789062 12.9640625,21.6789062 C12.4367188,21.6789062 11.9585938,21.4875 11.575,21.1039062 C11.1921875,20.7210938 11,20.2421875 11,19.7148438 C11,19.1875 11.1914062,18.709375 11.575,18.3257813 C11.9578125,17.9429688 12.4367188,17.7507813 12.9640625,17.7507813 C13.4914063,17.7507813 13.9695312,17.9421875 14.353125,18.3257813 C14.7359375,18.7085937 14.928125,19.1875 14.928125,19.7148438 C14.928125,20.2421875 14.7367187,20.7203125 14.353125,21.1039062 Z"/>
  <title>More</title>
</svg>