<svg width="50" height="50" viewBox="0 0 50 50" fill="none" xmlns="http://www.w3.org/2000/svg">
<path fill-rule="evenodd" clip-rule="evenodd" d="M47.1297 25.5656H35.3484C34.7734 25.5656 34.2953 25.7578 33.9109 26.1406C33.5266 26.5234 33.3359 27.0031 33.3359 27.4812V47.1172C33.3359 47.5953 33.5281 48.075 33.9109 48.4578C34.2938 48.8406 34.7734 49.0328 35.3484 49.0328H47.1297C47.6078 49.0328 48.0875 48.8406 48.4703 48.4578C48.8531 48.075 49.0453 47.5953 49.0453 47.1172V27.4812C49.0453 27.0031 48.8531 26.5234 48.4703 26.1406C48.0875 25.7578 47.6078 25.5656 47.1297 25.5656ZM42.1488 45.2015H40.2332C39.5629 45.2015 39.2754 44.8187 39.2754 44.1484C39.2754 43.4781 39.5629 43.1906 40.2332 43.1906H42.1488C42.8191 43.1906 43.202 43.4781 43.202 44.1484C43.202 44.8187 42.8191 45.2015 42.1488 45.2015ZM1.91875 31.4078V4.97031C1.91875 4.3 2.30156 3.91719 2.97187 3.91719H42.1484C42.8187 3.91719 43.2016 4.3 43.2016 4.97031V22.5953C43.2016 23.2656 43.4891 23.5531 44.1594 23.5531C44.8297 23.5531 45.1172 23.2656 45.1172 22.5953V4.97031C45.1172 4.10781 44.8297 3.4375 44.2547 2.8625C43.6797 2.2875 43.0094 2 42.1469 2H2.97031C2.10781 2 1.4375 2.2875 0.8625 2.8625C0.2875 3.4375 0 4.10781 0 4.97031V38.3031C0 39.1656 0.2875 39.8359 0.8625 40.4109C1.4375 40.9859 2.10781 41.2734 2.97031 41.2734H17.625V47.1156H14.7516C14.0812 47.1156 13.6984 47.4031 13.6984 48.0734C13.6984 48.7437 14.0812 49.0312 14.7516 49.0312H30.3641C31.0344 49.0312 31.4172 48.7437 31.4172 48.0734C31.4172 47.4031 31.0344 47.1156 30.3641 47.1156H27.4906V41.2734H31.4172V31.4078H1.91562H1.91875ZM19.6387 47.1172V41.275H25.4809V47.1172H19.6387Z" fill="#C70BB5"/>
</svg>
