<svg xmlns="http://www.w3.org/2000/svg" viewBox="0 0 25 25" id="open">
  <path d="M23.5578125,1.478125 C23.5578125,1.478125 23.5578125,1.478125 23.5578125,1.478125 C23.5578125,1.478125 23.5578125,9.3328125 23.5578125,9.3328125 C23.5578125,9.66796875 23.4140625,9.81171875 23.0789062,9.81171875 C22.74375,9.81171875 22.6,9.66796875 22.6,9.3328125 C22.6,9.3328125 22.6,9.3328125 22.6,9.3328125 C22.6,9.3328125 22.6,2.67578125 22.6,2.67578125 C22.6,2.67578125 10.675,14.6007812 10.675,14.6007812 C10.4835938,14.696875 10.3875,14.7445312 10.3398438,14.7445312 C10.3398438,14.7445312 10.3398438,14.7445312 10.3398438,14.7445312 C10.0046875,14.7445312 9.81328125,14.553125 9.81328125,14.2179687 C9.81328125,14.2179687 9.81328125,14.2179687 9.81328125,14.2179687 C9.81328125,14.0742187 9.8609375,13.9789062 9.95703125,13.8828125 C9.95703125,13.8828125 9.95703125,13.8828125 9.95703125,13.8828125 C9.95703125,13.8828125 21.8820312,1.9578125 21.8820312,1.9578125 C21.8820312,1.9578125 15.225,1.9578125 15.225,1.9578125 C14.8898437,1.9578125 14.7460937,1.8140625 14.7460937,1.47890625 C14.7460937,1.14375 14.8898437,1 15.225,1 C15.225,1 15.225,1 15.225,1 C15.225,1 23.0796875,1 23.0796875,1 C23.4148437,1 23.5585937,1.14375 23.5585937,1.47890625 L23.5578125,1.478125 Z M21.59375,13.2601562 C21.59375,12.925 21.45,12.78125 21.1148437,12.78125 C20.7796875,12.78125 20.6359375,12.925 20.6359375,13.2601562 C20.6359375,13.2601562 20.6359375,13.2601562 20.6359375,13.2601562 C20.6359375,13.2601562 20.6359375,22.0726562 20.6359375,22.0726562 C20.6359375,22.4078125 20.4445312,22.5515625 20.109375,22.5515625 C20.109375,22.5515625 20.109375,22.5515625 20.109375,22.5515625 C20.109375,22.5515625 2.48515625,22.5515625 2.48515625,22.5515625 C2.15,22.5515625 1.95859375,22.4078125 1.95859375,22.0726562 C1.95859375,22.0726562 1.95859375,22.0726562 1.95859375,22.0726562 C1.95859375,22.0726562 1.95859375,4.4484375 1.95859375,4.4484375 C1.95859375,4.11328125 2.15,3.921875 2.48515625,3.921875 C2.48515625,3.921875 2.48515625,3.921875 2.48515625,3.921875 C2.48515625,3.921875 11.2976562,3.921875 11.2976562,3.921875 C11.6328125,3.921875 11.7765625,3.778125 11.7765625,3.44296875 C11.7765625,3.1078125 11.6328125,2.9640625 11.2976562,2.9640625 C11.2976562,2.9640625 11.2976562,2.9640625 11.2976562,2.9640625 C11.2976562,2.9640625 2.48515625,2.9640625 2.48515625,2.9640625 C2.05390625,2.9640625 1.71875,3.1078125 1.43125,3.3953125 C1.14375,3.6828125 1,4.01796875 1,4.44921875 C1,4.44921875 1,4.44921875 1,4.44921875 C1,4.44921875 1,22.0734375 1,22.0734375 C1,22.5046875 1.14375,22.8398438 1.43125,23.1273437 C1.71875,23.4148437 2.05390625,23.5585938 2.48515625,23.5585938 C2.48515625,23.5585938 2.48515625,23.5585938 2.48515625,23.5585938 C2.48515625,23.5585938 20.109375,23.5585938 20.109375,23.5585938 C20.540625,23.5585938 20.8757812,23.4148437 21.1632813,23.1273438 C21.4507812,22.8398438 21.5945312,22.5046875 21.5945312,22.0734375 C21.5945312,22.0734375 21.5945312,22.0734375 21.5945312,22.0734375 C21.5945312,22.0734375 21.5945312,13.2609375 21.5945312,13.2609375 L21.59375,13.2601562 Z"/>
  <title>Open</title>
</svg>