<svg xmlns="http://www.w3.org/2000/svg" viewBox="0 0 25 25" id="paper-clip">
  <path d="M20.5226562,11.6265625 C20.6664062,11.6265625 20.7617188,11.6742188 20.8578125,11.7703125 C20.9539062,11.8664063 21.0015625,11.9617188 21.0015625,12.1054688 C21.0015625,12.2492188 20.9539062,12.3445313 20.8578125,12.440625 C20.8578125,12.440625 20.8578125,12.440625 20.8578125,12.440625 C20.8578125,12.440625 13.2429687,20.0554687 13.2429687,20.0554687 C12.1414062,21.109375 10.8484375,21.6359375 9.41171875,21.6359375 C7.975,21.6359375 6.68203125,21.109375 5.58046875,20.0554687 C5.58046875,20.0554687 5.58046875,20.0554687 5.58046875,20.0554687 C4.5265625,19.0015625 4,17.75625 4,16.271875 C4,16.271875 4,16.271875 4,16.271875 C4,14.8351563 4.5265625,13.5421875 5.58046875,12.440625 C5.58046875,12.440625 5.58046875,12.440625 5.58046875,12.440625 C5.58046875,12.440625 14.9671875,3.14921875 14.9671875,3.14921875 C15.7335937,2.3828125 16.64375,2 17.7453125,2 C18.846875,2 19.7570312,2.3828125 20.5234375,3.14921875 C20.5234375,3.14921875 20.5234375,3.14921875 20.5234375,3.14921875 C21.2898437,3.86796875 21.6726562,4.77734375 21.6726562,5.87890625 C21.6726562,5.87890625 21.6726562,5.87890625 21.6726562,5.87890625 C21.6726562,6.98046875 21.2898437,7.890625 20.5234375,8.65703125 C20.5234375,8.65703125 20.5234375,8.65703125 20.5234375,8.65703125 C20.5234375,8.65703125 11.8546875,17.2773438 11.8546875,17.2773438 C11.3757813,17.75625 10.8007812,17.9960938 10.1304687,17.9960938 C10.1304687,17.9960938 10.1304687,17.9960938 10.1304687,17.9960938 C9.5078125,17.9960938 8.88515625,17.7570313 8.35859375,17.2773438 C8.35859375,17.2773438 8.35859375,17.2773438 8.35859375,17.2773438 C7.8796875,16.7984375 7.63984375,16.2234375 7.63984375,15.553125 C7.63984375,14.8828125 7.87890625,14.3078125 8.35859375,13.8289062 C8.35859375,13.8289062 8.35859375,13.8289062 8.35859375,13.8289062 C8.35859375,13.8289062 16.6921875,5.54375 16.6921875,5.54375 C16.7882812,5.44765625 16.93125,5.4 17.075,5.4 C17.075,5.4 17.075,5.4 17.075,5.4 C17.21875,5.4 17.3140625,5.44765625 17.4101562,5.54375 C17.50625,5.63984375 17.5539062,5.73515625 17.5539062,5.87890625 C17.5539062,5.87890625 17.5539062,5.87890625 17.5539062,5.87890625 C17.5539062,6.02265625 17.50625,6.16640625 17.4101562,6.26171875 C17.4101562,6.26171875 17.4101562,6.26171875 17.4101562,6.26171875 C17.4101562,6.26171875 9.0765625,14.4992187 9.0765625,14.4992187 C8.7890625,14.7867187 8.6453125,15.121875 8.6453125,15.553125 C8.6453125,15.984375 8.7890625,16.3195313 9.0765625,16.6070312 C9.3640625,16.8945312 9.69921875,17.0382813 10.1304687,17.0382813 C10.1304687,17.0382813 10.1304687,17.0382813 10.1304687,17.0382813 C10.5132812,17.0382813 10.8492187,16.8945312 11.1359375,16.6070312 C11.1359375,16.6070312 11.1359375,16.6070312 11.1359375,16.6070312 C11.1359375,16.6070312 19.8523437,7.98671875 19.8523437,7.98671875 C20.4273437,7.41171875 20.7140625,6.69375 20.7140625,5.8796875 C20.7140625,5.8796875 20.7140625,5.8796875 20.7140625,5.8796875 C20.7140625,5.065625 20.4265625,4.3953125 19.8523437,3.8203125 C19.8523437,3.8203125 19.8523437,3.8203125 19.8523437,3.8203125 C19.2296875,3.2453125 18.5117187,2.95859375 17.7453125,2.95859375 C17.7453125,2.95859375 17.7453125,2.95859375 17.7453125,2.95859375 C16.93125,2.95859375 16.2609375,3.24609375 15.6859375,3.8203125 C15.6859375,3.8203125 15.6859375,3.8203125 15.6859375,3.8203125 C15.6859375,3.8203125 6.29921875,13.159375 6.29921875,13.159375 C5.4375,13.9734375 5.00625,14.9789062 5.00625,16.2726562 C5.00625,16.2726562 5.00625,16.2726562 5.00625,16.2726562 C5.00625,17.5179688 5.4375,18.5234375 6.29921875,19.3375 C6.29921875,19.3375 6.29921875,19.3375 6.29921875,19.3375 C7.1609375,20.1992188 8.21484375,20.6304688 9.4125,20.6304688 C9.4125,20.6304688 9.4125,20.6304688 9.4125,20.6304688 C10.7054687,20.6304688 11.7117187,20.1992188 12.5257812,19.3375 C12.5257812,19.3375 12.5257812,19.3375 12.5257812,19.3375 C12.5257812,19.3375 20.1882812,11.7703125 20.1882812,11.7703125 C20.284375,11.6742188 20.3796875,11.6265625 20.5234375,11.6265625 L20.5226562,11.6265625 Z"/>
  <title>Paper Clip</title>
</svg>