<svg xmlns="http://www.w3.org/2000/svg" viewBox="0 0 25 25" id="picture">
  <path d="M22.0734375,1 C22.0734375,1 22.0734375,1 22.0734375,1 C22.0734375,1 2.48515625,1 2.48515625,1 C2.05390625,1 1.71875,1.14375 1.43125,1.43125 C1.14375,1.71875 1,2.05390625 1,2.48515625 C1,2.48515625 1,2.48515625 1,2.48515625 C1,2.48515625 1,22.0734375 1,22.0734375 C1,22.5046875 1.14375,22.8398438 1.43125,23.1273437 C1.71875,23.4148437 2.05390625,23.5585938 2.48515625,23.5585938 C2.48515625,23.5585938 2.48515625,23.5585938 2.48515625,23.5585938 C2.48515625,23.5585938 22.0734375,23.5585938 22.0734375,23.5585938 C22.5046875,23.5585938 22.8398438,23.4148437 23.1273438,23.1273438 C23.4148437,22.8398438 23.5585938,22.5046875 23.5585938,22.0734375 C23.5585938,22.0734375 23.5585938,22.0734375 23.5585938,22.0734375 C23.5585938,22.0734375 23.5585938,2.48515625 23.5585938,2.48515625 C23.5585938,2.05390625 23.4148437,1.71875 23.1273438,1.43125 C22.8398438,1.14375 22.5046875,1 22.0734375,1 Z M22.6007812,19.6304687 C22.6007812,19.6304687 22.6007812,22.0726563 22.6007812,22.0726563 C22.6007812,22.4078125 22.409375,22.5515625 22.0742187,22.5515625 C22.0742187,22.5515625 22.0742187,22.5515625 22.0742187,22.5515625 C22.0742187,22.5515625 2.4859375,22.5515625 2.4859375,22.5515625 C2.15078125,22.5515625 1.959375,22.4078125 1.959375,22.0726563 C1.959375,22.0726563 1.959375,22.0726563 1.959375,22.0726563 C1.959375,22.0726563 1.959375,19.6304687 1.959375,19.6304687 C1.959375,19.6304687 22.6007812,19.6304687 22.6007812,19.6304687 Z M22.6007812,15.4164062 C22.6007812,15.4164062 22.6007812,18.6734375 22.6007812,18.6734375 C22.6007812,18.6734375 1.959375,18.6734375 1.959375,18.6734375 C1.959375,18.6734375 1.959375,16.9015625 1.959375,16.9015625 C1.959375,16.9015625 7.37109375,11.96875 7.37109375,11.96875 C7.37109375,11.96875 12.9265625,17.5242187 12.9265625,17.5242187 C13.0226562,17.6203125 13.1179687,17.6679688 13.2617187,17.6679688 C13.2617187,17.6679688 13.2617187,17.6679688 13.2617187,17.6679688 C13.596875,17.6679688 13.740625,17.5242187 13.740625,17.1890625 C13.740625,17.1890625 13.740625,17.1890625 13.740625,17.1890625 C13.740625,16.9976562 13.6929687,16.9015625 13.596875,16.8539063 C13.596875,16.8539063 13.596875,16.8539063 13.596875,16.8539063 C13.596875,16.8539063 10.7710937,13.9804687 10.7710937,13.9804687 C10.7710937,13.9804687 16.1828125,9.04765625 16.1828125,9.04765625 C16.1828125,9.04765625 22.6007812,15.4171875 22.6007812,15.4171875 L22.6007812,15.4164062 Z M22.6007813,2.48515625 C22.6007813,2.48515625 22.6007813,14.0273437 22.6007813,14.0273437 C22.6007813,14.0273437 16.5664062,7.99296875 16.5664062,7.99296875 C16.4703125,7.896875 16.3273437,7.84921875 16.1835938,7.84921875 C16.0398438,7.84921875 15.9445312,7.896875 15.8960938,7.99296875 C15.8960938,7.99296875 15.8960938,7.99296875 15.8960938,7.99296875 C15.8960938,7.99296875 10.1007813,13.309375 10.1007813,13.309375 C10.1007813,13.309375 7.70625,10.9625 7.70625,10.9625 C7.65859375,10.8664063 7.51484375,10.81875 7.37109375,10.81875 C7.37109375,10.81875 7.37109375,10.81875 7.37109375,10.81875 C7.275,10.81875 7.1796875,10.8664063 7.0359375,10.9148437 C7.0359375,10.9148437 7.0359375,10.9148437 7.0359375,10.9148437 C7.0359375,10.9148437 1.959375,15.5601562 1.959375,15.5601562 C1.959375,15.5601562 1.959375,2.48515625 1.959375,2.48515625 C1.959375,2.15 2.15078125,1.95859375 2.4859375,1.95859375 C2.4859375,1.95859375 2.4859375,1.95859375 2.4859375,1.95859375 C2.4859375,1.95859375 22.0742188,1.95859375 22.0742188,1.95859375 C22.409375,1.95859375 22.6007813,2.15 22.6007813,2.48515625 C22.6007813,2.48515625 22.6007813,2.48515625 22.6007813,2.48515625 Z M7.8015625,5.50234375 C7.41875,5.11953125 6.93984375,4.92734375 6.4125,4.92734375 C5.88515625,4.92734375 5.40703125,5.11875 5.0234375,5.50234375 C4.640625,5.88515625 4.4484375,6.3640625 4.4484375,6.89140625 C4.4484375,7.41875 4.63984375,7.896875 5.0234375,8.28046875 C5.40625,8.66328125 5.88515625,8.85546875 6.4125,8.85546875 C6.93984375,8.85546875 7.41796875,8.6640625 7.8015625,8.28046875 C8.184375,7.89765625 8.3765625,7.41875 8.3765625,6.89140625 C8.3765625,6.3640625 8.18515625,5.8859375 7.8015625,5.50234375 Z M6.4125,7.84921875 C6.4125,7.84921875 6.4125,7.84921875 6.4125,7.84921875 C6.125,7.84921875 5.8859375,7.753125 5.69375,7.56171875 C5.5015625,7.3703125 5.40625,7.13046875 5.40625,6.89140625 C5.40625,6.89140625 5.40625,6.89140625 5.40625,6.89140625 C5.40625,6.60390625 5.50234375,6.36484375 5.69375,6.17265625 C5.88515625,5.98046875 6.125,5.88515625 6.4125,5.88515625 C6.4125,5.88515625 6.4125,5.88515625 6.4125,5.88515625 C6.6515625,5.88515625 6.89140625,5.98125 7.0828125,6.17265625 C7.27421875,6.3640625 7.3703125,6.60390625 7.3703125,6.89140625 C7.3703125,6.89140625 7.3703125,6.89140625 7.3703125,6.89140625 C7.3703125,7.13046875 7.27421875,7.3703125 7.0828125,7.56171875 C6.89140625,7.753125 6.6515625,7.84921875 6.4125,7.84921875 Z"/>
  <title>Picture</title>
</svg>