<svg xmlns="http://www.w3.org/2000/svg" viewBox="0 0 25 25" id="polaris-solid">
  <path d="M24.5210937,12.2617188 C24.5210937,12.2617188 24.5210937,12.2617188 24.5210937,12.2617188 C20.8335938,12.6445312 17.9601563,13.7460938 15.9960938,15.6140625 C15.9960938,15.6140625 15.9960938,15.6140625 15.9960938,15.6140625 C13.7453125,17.6734375 12.5,20.6429688 12.2601563,24.521875 C12.2601563,24.521875 12.2601563,24.521875 12.2601563,24.521875 C11.78125,20.5945312 10.440625,17.625 8.28515625,15.565625 C8.28515625,15.565625 8.28515625,15.565625 8.28515625,15.565625 C6.2734375,13.6976563 3.49609375,12.5960938 0,12.2609375 C0,12.2609375 0,12.2609375 0,12.2609375 C3.6875,11.9734375 6.5609375,10.8242188 8.6203125,8.8125 C8.6203125,8.8125 8.6203125,8.8125 8.6203125,8.8125 C10.6796875,6.753125 11.8773437,3.83203125 12.2601563,0 C12.2601563,0 12.2601563,0 12.2601563,0 C12.5476562,4.2625 13.9367188,7.4234375 16.475,9.4828125 C16.475,9.4828125 16.475,9.4828125 16.475,9.4828125 C18.534375,11.1109375 21.2164062,12.0210938 24.5210937,12.2609375 L24.5210937,12.2617188 Z M22.9882813,4.5984375 C22.9882813,4.5984375 22.9882813,4.5984375 22.9882813,4.5984375 C22.078125,4.69453125 21.3601563,4.98125 20.7851563,5.50859375 C20.7851563,5.50859375 20.7851563,5.50859375 20.7851563,5.50859375 C20.2585938,6.03515625 19.9710938,6.75390625 19.9234375,7.6640625 C19.9234375,7.6640625 19.9234375,7.6640625 19.9234375,7.6640625 C19.8273438,6.75390625 19.540625,6.0359375 19.0617188,5.55703125 C19.0617188,5.55703125 19.0617188,5.55703125 19.0617188,5.55703125 C18.5351562,5.03046875 17.8164062,4.6953125 16.8585938,4.59921875 C16.8585938,4.59921875 16.8585938,4.59921875 16.8585938,4.59921875 C17.76875,4.5515625 18.4390625,4.2640625 18.965625,3.78515625 C18.965625,3.78515625 18.965625,3.78515625 18.965625,3.78515625 C19.4921875,3.25859375 19.8273438,2.4921875 19.9234375,1.534375 C19.9234375,1.534375 19.9234375,1.534375 19.9234375,1.534375 C19.9710938,2.53984375 20.30625,3.30625 20.88125,3.78515625 C20.88125,3.78515625 20.88125,3.78515625 20.88125,3.78515625 C21.4078125,4.2640625 22.0789062,4.5515625 22.9882813,4.59921875 L22.9882813,4.5984375 Z M7.6625,19.9242187 C7.6625,19.9242187 7.6625,19.9242187 7.6625,19.9242187 C6.7046875,20.0203125 5.9859375,20.3070312 5.459375,20.834375 C5.459375,20.834375 5.459375,20.834375 5.459375,20.834375 C4.9328125,21.3132812 4.6453125,22.0320312 4.59765625,22.9898437 C4.59765625,22.9898437 4.59765625,22.9898437 4.59765625,22.9898437 C4.5015625,21.984375 4.16640625,21.265625 3.5921875,20.7390625 C3.5921875,20.7390625 3.5921875,20.7390625 3.5921875,20.7390625 C3.1609375,20.3078125 2.44296875,20.0203125 1.5328125,19.925 C1.5328125,19.925 1.5328125,19.925 1.5328125,19.925 C2.346875,19.8773437 3.0171875,19.6375 3.49609375,19.20625 C3.49609375,19.20625 3.49609375,19.20625 3.49609375,19.20625 C4.11875,18.7273437 4.5015625,17.9609375 4.59765625,16.859375 C4.59765625,16.859375 4.59765625,16.859375 4.59765625,16.859375 C4.6453125,17.6734375 4.88515625,18.3921875 5.3640625,18.9664062 C5.3640625,18.9664062 5.3640625,18.9664062 5.3640625,18.9664062 C5.84296875,19.4929687 6.609375,19.828125 7.66328125,19.9242187 C7.66328125,19.9242187 7.66328125,19.9242187 7.66328125,19.9242187 L7.6625,19.9242187 Z"/>
  <title>Polaris Solid</title>
</svg>