<svg xmlns="http://www.w3.org/2000/svg" viewBox="0 0 25 25" id="search-analytics">
  <path d="M18.0570313,9.53125 C18.0570313,11.878125 17.2429688,13.8898438 15.5664063,15.565625 C13.8898438,17.2414063 11.8789063,18.05625 9.53203125,18.05625 C7.18515625,18.05625 5.1734375,17.2421875 3.49765625,15.565625 C3.49765625,15.565625 3.49765625,15.565625 3.49765625,15.565625 C2.82734375,14.9429688 2.3,14.1765625 1.86953125,13.3625 C1.86953125,13.3625 1.86953125,13.3625 1.86953125,13.3625 C1.86953125,13.3625 6.27578125,8.95625 6.27578125,8.95625 C6.51484375,9.1 6.7546875,9.14765625 6.99453125,9.14765625 C6.99453125,9.14765625 6.99453125,9.14765625 6.99453125,9.14765625 C7.28203125,9.14765625 7.52109375,9.1 7.7609375,8.95625 C7.7609375,8.95625 7.7609375,8.95625 7.7609375,8.95625 C7.7609375,8.95625 10.8742188,12.0210938 10.8742188,12.0210938 C10.6351563,12.2601563 10.5390625,12.5960938 10.5390625,12.9789063 C10.5390625,12.9789063 10.5390625,12.9789063 10.5390625,12.9789063 C10.5390625,13.4578125 10.6828125,13.7929688 10.9703125,14.0328125 C10.9703125,14.0328125 10.9703125,14.0328125 10.9703125,14.0328125 C11.2578125,14.3203125 11.5929688,14.4640625 12.0242188,14.4640625 C12.0242188,14.4640625 12.0242188,14.4640625 12.0242188,14.4640625 C12.4554687,14.4640625 12.8382813,14.3203125 13.1257813,14.0328125 C13.1257813,14.0328125 13.1257813,14.0328125 13.1257813,14.0328125 C13.4132812,13.79375 13.5570313,13.4578125 13.5570313,12.9789063 C13.5570313,12.9789063 13.5570313,12.9789063 13.5570313,12.9789063 C13.5570313,12.93125 13.5570313,12.8828125 13.5570313,12.8351563 C13.509375,12.7875 13.509375,12.7390625 13.509375,12.6914063 C13.509375,12.6914063 13.509375,12.6914063 13.509375,12.6914063 C13.509375,12.6914063 17.9632813,8.28515625 17.9632813,8.28515625 C18.0109375,8.86015625 18.059375,9.290625 18.059375,9.53046875 C18.059375,9.53046875 18.059375,9.53046875 18.059375,9.53046875 L18.0570313,9.53125 Z M1.00703125,9.53125 C1.00703125,7.184375 1.82109375,5.17265625 3.49765625,3.496875 C5.17421875,1.82109375 7.18515625,1.00625 9.53203125,1.00625 C11.8789062,1.00625 13.890625,1.8203125 15.5664062,3.496875 C15.5664062,3.496875 15.5664062,3.496875 15.5664062,3.496875 C16.6203125,4.5984375 17.3382813,5.84375 17.721875,7.13671875 C17.721875,7.13671875 17.721875,7.13671875 17.721875,7.13671875 C17.721875,7.13671875 17.6742188,7.184375 17.6742188,7.184375 C17.6742188,7.184375 12.9328125,11.7820312 12.9328125,11.7820312 C12.6453125,11.5429688 12.3578125,11.446875 12.0226563,11.446875 C12.0226563,11.446875 12.0226563,11.446875 12.0226563,11.446875 C11.975,11.446875 11.8789062,11.4945312 11.7351563,11.5429687 C11.7351563,11.5429687 11.7351563,11.5429687 11.7351563,11.5429687 C11.7351563,11.5429687 8.43046875,8.190625 8.43046875,8.190625 C8.478125,7.9515625 8.5265625,7.759375 8.5265625,7.6640625 C8.5265625,7.6640625 8.5265625,7.6640625 8.5265625,7.6640625 C8.5265625,7.2328125 8.3828125,6.89765625 8.04765625,6.61015625 C8.04765625,6.61015625 8.04765625,6.61015625 8.04765625,6.61015625 C7.76015625,6.32265625 7.425,6.17890625 6.99375,6.17890625 C6.5625,6.17890625 6.22734375,6.32265625 5.93984375,6.61015625 C5.65234375,6.89765625 5.50859375,7.2328125 5.50859375,7.6640625 C5.50859375,7.6640625 5.50859375,7.6640625 5.50859375,7.6640625 C5.50859375,7.8078125 5.55625,7.99921875 5.6046875,8.2390625 C5.6046875,8.2390625 5.6046875,8.2390625 5.6046875,8.2390625 C5.6046875,8.2390625 1.4859375,12.4054687 1.4859375,12.4054687 C1.15078125,11.54375 1.00703125,10.5859375 1.00703125,9.53203125 C1.00703125,9.53203125 1.00703125,9.53203125 1.00703125,9.53203125 L1.00703125,9.53125 Z M23.9476562,23.228125 C23.9476562,23.228125 23.9476562,23.228125 23.9476562,23.228125 C23.9476562,23.228125 16.571875,15.9007813 16.571875,15.9007813 C18.2,14.08125 19.0140625,11.9734375 19.0140625,9.53125 C19.0140625,9.53125 19.0140625,9.53125 19.0140625,9.53125 C19.0140625,6.896875 18.1039062,4.64609375 16.2359375,2.778125 C14.3679687,0.91015625 12.1648437,0 9.53125,0 C9.53125,0 9.53125,0 9.53125,0 C6.896875,0 4.64609375,0.91015625 2.778125,2.778125 C0.91015625,4.64609375 0,6.896875 0,9.53125 C0,9.53125 0,9.53125 0,9.53125 C0,12.165625 0.91015625,14.36875 2.778125,16.2359375 C4.64609375,18.103125 6.896875,19.0140625 9.53125,19.0140625 C9.53125,19.0140625 9.53125,19.0140625 9.53125,19.0140625 C11.9734375,19.0140625 14.08125,18.2 15.9007812,16.571875 C15.9007812,16.571875 15.9007812,16.571875 15.9007812,16.571875 C15.9007812,16.571875 23.228125,23.9476563 23.228125,23.9476563 C23.2757812,23.9953125 23.4195312,24.04375 23.5632812,24.04375 C23.5632812,24.04375 23.5632812,24.04375 23.5632812,24.04375 C23.7546875,24.04375 23.8984375,23.9960938 23.9460937,23.9476563 C23.9460937,23.9476563 23.9460937,23.9476563 23.9460937,23.9476563 C24.1375,23.7085938 24.1375,23.46875 23.9460937,23.2289063 C23.9460937,23.2289063 23.9460937,23.2289063 23.9460937,23.2289063 L23.9476562,23.228125 Z"/>
  <title>Search Analytics</title>
</svg>