<svg xmlns="http://www.w3.org/2000/svg" viewBox="0 0 25 25" id="star-solid">
  <path d="M24.3710937,9.95625 C24.3710937,9.95625 24.3710937,9.95625 24.3710937,9.95625 C24.3710937,9.95625 18.671875,15.0328125 18.671875,15.0328125 C18.671875,15.0328125 20.2046875,22.9828125 20.2046875,22.9828125 C20.2046875,22.9828125 20.2046875,23.0789062 20.2046875,23.0789062 C20.2046875,23.4140625 20.0132812,23.5578125 19.678125,23.5578125 C19.678125,23.5578125 19.678125,23.5578125 19.678125,23.5578125 C19.5820312,23.5578125 19.534375,23.5578125 19.4867187,23.5101562 C19.4867187,23.5101562 19.4867187,23.5101562 19.4867187,23.5101562 C19.4867187,23.5101562 12.7335937,20.0140625 12.7335937,20.0140625 C12.7335937,20.0140625 6.02890625,23.5101563 6.02890625,23.5101563 C5.98125,23.5101563 5.98125,23.5101563 5.9328125,23.5101563 C5.88515625,23.5578125 5.83671875,23.5578125 5.7890625,23.5578125 C5.7890625,23.5578125 5.7890625,23.5578125 5.7890625,23.5578125 C5.45390625,23.5578125 5.31015625,23.4140625 5.31015625,23.0789062 C5.31015625,23.0789062 5.31015625,23.0789062 5.31015625,23.0789062 C5.31015625,23.0789062 5.31015625,22.9828125 5.31015625,22.9828125 C5.31015625,22.9828125 6.890625,15.0328125 6.890625,15.0328125 C6.890625,15.0328125 1.14375,9.95625 1.14375,9.95625 C1.04765625,9.86015625 1,9.7171875 1,9.5734375 C1,9.5734375 1,9.5734375 1,9.5734375 C1,9.334375 1.14375,9.1421875 1.43125,9.09453125 C1.43125,9.09453125 1.43125,9.09453125 1.43125,9.09453125 C1.43125,9.09453125 8.95078125,7.896875 8.95078125,7.896875 C8.95078125,7.896875 12.3507812,1.2875 12.3507812,1.2875 C12.3984375,1.09609375 12.5421875,1 12.7820312,1 C12.7820312,1 12.7820312,1 12.7820312,1 C12.9734375,1 13.1171875,1.09609375 13.2132812,1.2390625 C13.2132812,1.2390625 13.2132812,1.2390625 13.2132812,1.2390625 C13.2132812,1.2390625 16.6132812,7.89609375 16.6132812,7.89609375 C16.6132812,7.89609375 24.1328125,9.09375 24.1328125,9.09375 C24.4203125,9.14140625 24.5640625,9.3328125 24.5640625,9.57265625 C24.5640625,9.57265625 24.5640625,9.57265625 24.5640625,9.57265625 C24.5640625,9.71640625 24.5164062,9.81171875 24.3726562,9.95546875 L24.3710937,9.95625 Z"/>
  <title>Star Solid</title>
</svg>