<svg xmlns="http://www.w3.org/2000/svg" viewBox="0 0 25 25" id="trash">
  <path d="M22.1140625,3.96875 C22.1140625,3.96875 22.1140625,3.96875 22.1140625,3.96875 C22.1140625,3.96875 17.46875,3.96875 17.46875,3.96875 C17.46875,3.96875 16.9898437,2.14921875 16.9898437,2.14921875 C16.9421875,1.8140625 16.7507812,1.57421875 16.5109375,1.33515625 C16.2234375,1.09609375 15.8882813,1 15.553125,1 C15.553125,1 15.553125,1 15.553125,1 C15.553125,1 9.03984375,1 9.03984375,1 C8.7046875,1 8.4171875,1.09609375 8.1296875,1.2875 C7.8421875,1.52734375 7.65078125,1.76640625 7.603125,2.1015625 C7.603125,2.1015625 7.603125,2.1015625 7.603125,2.1015625 C7.603125,2.1015625 7.12421875,3.96953125 7.12421875,3.96953125 C7.12421875,3.96953125 2.47890625,3.96953125 2.47890625,3.96953125 C2.14375,3.96953125 2,4.11328125 2,4.4484375 C2,4.78359375 2.14375,4.92734375 2.47890625,4.92734375 C2.47890625,4.92734375 2.47890625,4.92734375 2.47890625,4.92734375 C2.47890625,4.92734375 4.01171875,4.92734375 4.01171875,4.92734375 C4.01171875,4.92734375 4.921875,23.1742188 4.921875,23.1742188 C4.96953125,23.5570312 5.11328125,23.8929688 5.40078125,24.1320313 C5.63984375,24.4195312 5.97578125,24.5632812 6.40625,24.5632812 C6.40625,24.5632812 6.40625,24.5632812 6.40625,24.5632812 C6.40625,24.5632812 18.2359375,24.5632812 18.2359375,24.5632812 C18.6671875,24.5632812 19.0023438,24.4195312 19.2898438,24.1320313 C19.5289063,23.8929688 19.6726562,23.5570312 19.7210938,23.1742188 C19.7210938,23.1742188 19.7210938,23.1742188 19.7210938,23.1742188 C19.7210938,23.1742188 20.63125,4.92734375 20.63125,4.92734375 C20.63125,4.92734375 22.115625,4.92734375 22.115625,4.92734375 C22.4507812,4.92734375 22.5945312,4.78359375 22.5945312,4.4484375 C22.5945312,4.11328125 22.4507812,3.96953125 22.115625,3.96953125 L22.1140625,3.96875 Z M8.17734375,3.96875 C8.17734375,3.96875 8.56015625,2.38828125 8.56015625,2.38828125 C8.6078125,2.1484375 8.79921875,2.00546875 9.0390625,2.00546875 C9.0390625,2.00546875 9.0390625,2.00546875 9.0390625,2.00546875 C9.0390625,2.00546875 15.5523437,2.00546875 15.5523437,2.00546875 C15.7914062,2.00546875 15.9835937,2.14921875 16.03125,2.38828125 C16.03125,2.38828125 16.03125,2.38828125 16.03125,2.38828125 C16.03125,2.38828125 16.4140625,3.96875 16.4140625,3.96875 C16.4140625,3.96875 8.1765625,3.96875 8.1765625,3.96875 L8.17734375,3.96875 Z M19.6710938,4.9265625 C19.6710938,4.9265625 18.7609375,23.1257812 18.7609375,23.1257812 C18.7132812,23.4132812 18.521875,23.5570312 18.234375,23.5570312 C18.234375,23.5570312 18.234375,23.5570312 18.234375,23.5570312 C18.234375,23.5570312 6.4046875,23.5570312 6.4046875,23.5570312 C6.1171875,23.5570312 5.92578125,23.4132812 5.878125,23.1257812 C5.878125,23.1257812 5.878125,23.1257812 5.878125,23.1257812 C5.878125,23.1257812 4.96796875,4.9265625 4.96796875,4.9265625 C4.96796875,4.9265625 19.6710938,4.9265625 19.6710938,4.9265625 L19.6710938,4.9265625 Z M8.84765625,18.1929687 C8.84765625,18.1929687 8.84765625,18.1929687 8.84765625,18.1929687 C8.84765625,18.1929687 8.84765625,10.3382812 8.84765625,10.3382812 C8.84765625,10.003125 9.0390625,9.859375 9.37421875,9.859375 C9.37421875,9.859375 9.37421875,9.859375 9.37421875,9.859375 C9.709375,9.859375 9.853125,10.003125 9.853125,10.3382812 C9.853125,10.3382812 9.853125,10.3382812 9.853125,10.3382812 C9.853125,10.3382812 9.853125,18.1929687 9.853125,18.1929687 C9.853125,18.528125 9.709375,18.671875 9.37421875,18.671875 C9.37421875,18.671875 9.37421875,18.671875 9.37421875,18.671875 C9.0390625,18.671875 8.84765625,18.528125 8.84765625,18.1929687 Z M14.7382812,18.1929687 C14.7382812,18.1929687 14.7382812,18.1929687 14.7382812,18.1929687 C14.7382812,18.1929687 14.7382812,10.3382812 14.7382812,10.3382812 C14.7382812,10.003125 14.8820313,9.859375 15.2171875,9.859375 C15.2171875,9.859375 15.2171875,9.859375 15.2171875,9.859375 C15.5523437,9.859375 15.74375,10.003125 15.74375,10.3382812 C15.74375,10.3382812 15.74375,10.3382812 15.74375,10.3382812 C15.74375,10.3382812 15.74375,18.1929687 15.74375,18.1929687 C15.74375,18.528125 15.5523437,18.671875 15.2171875,18.671875 C15.2171875,18.671875 15.2171875,18.671875 15.2171875,18.671875 C14.8820313,18.671875 14.7382812,18.528125 14.7382812,18.1929687 Z M11.8164062,19.1507813 C11.8164062,19.1507813 11.8164062,19.1507813 11.8164062,19.1507813 C11.8164062,19.1507813 11.8164062,9.38046875 11.8164062,9.38046875 C11.8164062,9.0453125 11.9601563,8.85390625 12.2953125,8.85390625 C12.6304687,8.85390625 12.7742187,9.0453125 12.7742187,9.38046875 C12.7742187,9.38046875 12.7742187,9.38046875 12.7742187,9.38046875 C12.7742187,9.38046875 12.7742187,19.1507813 12.7742187,19.1507813 C12.7742187,19.4859375 12.6304687,19.6773437 12.2953125,19.6773437 C11.9601563,19.6773437 11.8164062,19.4859375 11.8164062,19.1507813 Z"/>
  <title>Trash</title>
</svg>